<?xml version="1.0" standalone="no"?>
<!DOCTYPE svg PUBLIC "-//W3C//DTD SVG 20010904//EN"
 "http://www.w3.org/TR/2001/REC-SVG-20010904/DTD/svg10.dtd">
<svg version="1.0" xmlns="http://www.w3.org/2000/svg"
 width="928.000000pt" height="928.000000pt" viewBox="0 0 928.000000 928.000000"
 preserveAspectRatio="xMidYMid meet">
<metadata>
Created by potrace 1.14, written by Peter Selinger 2001-2017
</metadata>
<g transform="translate(0.000000,928.000000) scale(0.100000,-0.100000)"
fill="#000000" stroke="none">
<path d="M6518 7995 c-1 -1 -45 -6 -97 -9 -52 -3 -111 -9 -130 -11 -20 -3 -54
-8 -76 -10 -67 -7 -136 -17 -220 -31 -44 -8 -87 -15 -95 -15 -8 -1 -46 -8 -83
-15 -37 -8 -82 -16 -100 -18 -18 -2 -39 -7 -47 -10 -8 -3 -28 -7 -45 -10 -25
-3 -158 -32 -240 -52 -11 -3 -32 -6 -47 -9 -15 -2 -32 -6 -37 -10 -6 -3 -23
-7 -38 -9 -16 -2 -57 -12 -93 -21 -36 -9 -76 -19 -90 -21 -14 -3 -41 -9 -60
-14 -19 -5 -46 -11 -60 -14 -14 -2 -64 -14 -112 -25 -47 -11 -101 -23 -120
-26 -18 -3 -40 -8 -48 -10 -8 -2 -31 -7 -50 -10 -19 -3 -42 -8 -50 -10 -8 -2
-35 -7 -60 -10 -25 -3 -52 -7 -60 -10 -30 -8 -118 -19 -245 -29 -49 -4 -100
-9 -113 -11 -41 -7 -365 -17 -522 -17 -141 -1 -594 11 -715 17 -77 4 -518 16
-719 19 -161 2 -180 5 -192 21 -8 10 -14 25 -14 32 0 32 -69 151 -114 196 -68
68 -128 94 -209 92 -35 -1 -74 -8 -88 -16 -13 -7 -27 -13 -30 -14 -3 0 -26
-16 -52 -35 -52 -40 -112 -146 -120 -215 -2 -22 -6 -44 -7 -50 -1 -5 -2 -12
-1 -15 2 -3 4 -24 6 -47 4 -38 1 -42 -26 -53 -16 -7 -29 -17 -29 -23 0 -6 -3
-8 -6 -4 -6 6 -125 -77 -187 -131 -52 -46 -180 -176 -217 -221 -19 -24 -40
-48 -46 -55 -58 -61 -166 -264 -248 -466 -15 -36 -31 -74 -36 -85 -25 -57 -52
-121 -54 -130 -11 -41 -125 -291 -163 -357 -34 -59 -87 -130 -134 -179 -9 -9
-27 -15 -41 -14 -32 4 -97 -42 -119 -84 -27 -51 -20 -140 15 -186 27 -35 64
-57 104 -64 4 0 14 -22 21 -48 19 -74 133 -285 191 -356 5 -7 31 -39 57 -72
57 -72 51 -66 134 -151 73 -76 189 -180 279 -251 8 -6 56 -46 107 -87 51 -42
97 -76 103 -76 5 0 10 -4 10 -8 0 -4 24 -26 52 -47 89 -67 262 -246 320 -330
49 -72 122 -192 123 -205 1 -3 11 -25 24 -50 54 -107 106 -252 137 -380 8 -36
18 -76 21 -90 4 -14 7 -36 8 -50 2 -14 5 -43 9 -65 6 -37 10 -94 22 -305 3
-47 6 -110 8 -140 2 -30 7 -109 10 -175 4 -66 9 -151 12 -190 2 -38 7 -117 9
-175 2 -58 5 -105 6 -105 1 0 2 -22 4 -50 7 -142 17 -290 21 -294 6 -6 -27
-41 -38 -41 -13 0 -94 -57 -119 -83 -104 -111 -69 -316 64 -372 31 -13 110
-15 504 -15 447 0 468 1 507 20 40 20 88 76 167 195 18 28 37 55 42 60 15 18
172 249 197 290 13 22 32 49 42 59 10 11 18 23 18 26 0 4 26 47 58 96 32 49
67 105 78 124 10 19 22 37 25 40 10 7 48 71 61 103 7 15 16 27 20 27 4 0 8 7
8 15 0 8 5 15 10 15 6 0 10 5 10 10 0 6 26 55 58 108 31 53 63 108 70 122 7
14 24 45 38 70 14 25 53 97 86 161 l60 116 231 2 c299 2 942 16 942 21 0 1 44
3 97 5 114 4 236 12 473 30 89 7 180 17 295 31 25 3 61 7 80 9 64 8 115 15
136 20 19 4 36 7 127 20 19 2 41 7 50 11 13 5 17 0 18 -22 0 -16 2 -36 4 -44
1 -8 8 -55 14 -105 7 -49 14 -103 17 -120 7 -37 12 -76 19 -135 3 -25 8 -56
10 -70 2 -14 7 -43 10 -65 7 -46 33 -214 41 -265 3 -19 8 -48 10 -65 5 -41 13
-95 19 -125 4 -26 13 -83 20 -135 3 -16 9 -54 15 -84 13 -69 13 -81 -2 -81
-18 -1 -80 -58 -109 -100 -42 -61 -53 -181 -22 -250 3 -8 7 -18 7 -21 2 -12
54 -66 86 -89 l35 -25 460 -2 c413 -2 464 -1 494 14 35 17 174 152 271 263 30
35 60 68 65 74 48 53 127 151 204 251 50 66 96 126 103 134 6 8 27 37 46 65
20 28 38 53 41 56 20 16 291 438 364 566 76 135 128 228 148 269 11 22 24 47
29 55 33 51 276 593 285 634 1 6 7 25 14 41 17 40 137 402 147 440 4 17 9 35
10 40 4 13 44 165 49 188 2 10 7 27 10 37 7 23 15 57 20 92 2 15 6 35 9 45 3
10 8 34 11 53 3 19 12 71 20 115 24 137 35 218 52 405 10 109 9 541 -1 600 -4
25 -9 59 -11 75 -13 117 -34 220 -70 350 -14 50 -27 100 -30 112 -21 93 -120
335 -199 486 -79 152 -85 163 -124 220 -17 26 -32 52 -32 58 0 5 -3 9 -7 9 -5
0 -19 17 -33 38 -101 153 -282 343 -440 465 -30 23 -57 45 -60 48 -10 12 -148
98 -227 142 -110 60 -320 145 -428 173 -16 4 -34 8 -40 10 -57 16 -232 50
-310 59 -16 2 -52 7 -80 10 -27 3 -61 9 -75 12 -26 5 -576 14 -582 8z m526
-199 c98 -8 179 -18 256 -32 14 -2 41 -7 60 -10 19 -3 51 -9 70 -14 19 -5 46
-11 60 -14 49 -9 146 -37 215 -62 83 -29 319 -143 323 -155 2 -5 8 -9 14 -9
13 0 123 -77 213 -151 101 -81 275 -258 275 -279 0 -6 3 -10 8 -10 9 0 112
-136 112 -149 0 -5 4 -11 8 -13 11 -4 112 -170 151 -248 18 -36 36 -72 41 -80
36 -67 159 -387 160 -418 0 -4 4 -20 10 -37 5 -16 12 -41 14 -55 3 -14 10 -43
16 -65 5 -22 12 -56 15 -75 3 -19 8 -41 11 -48 2 -8 7 -37 10 -65 4 -29 8 -55
10 -58 15 -26 22 -374 11 -529 -10 -133 -17 -212 -22 -250 -2 -19 -7 -55 -10
-80 -3 -25 -10 -70 -15 -100 -5 -30 -12 -73 -15 -95 -4 -22 -8 -48 -11 -57 -3
-9 -7 -27 -9 -40 -3 -13 -7 -34 -10 -48 -3 -14 -8 -36 -11 -50 -3 -14 -7 -36
-10 -50 -8 -42 -54 -210 -82 -300 -14 -47 -26 -87 -27 -90 -3 -16 -49 -158
-56 -170 -4 -8 -22 -55 -40 -105 -61 -170 -235 -565 -249 -565 -3 0 -16 18
-29 40 -48 87 -262 267 -338 286 -13 4 -23 10 -23 15 0 5 -11 9 -24 9 -13 0
-26 4 -28 8 -3 8 -145 53 -178 57 -8 1 -26 5 -40 8 -57 14 -138 24 -283 32
-50 3 -93 7 -95 10 -2 2 -15 0 -28 -5 -14 -6 -26 -6 -29 1 -4 5 -10 7 -15 4
-5 -3 -51 -7 -102 -10 -52 -2 -107 -6 -123 -9 -17 -3 -50 -8 -75 -11 -233 -32
-532 -139 -703 -251 -28 -19 -54 -30 -58 -26 -4 4 -10 36 -13 72 -3 36 -8 76
-11 89 -6 34 -23 224 -29 326 -2 33 -6 70 -10 82 -17 53 -99 66 -135 22 -18
-22 -20 -35 -16 -134 4 -107 8 -164 19 -255 3 -25 8 -67 11 -95 5 -48 9 -76
20 -164 6 -43 6 -43 -70 -56 -22 -4 -51 -9 -65 -12 -41 -8 -73 -13 -116 -18
-23 -2 -54 -6 -70 -9 -15 -3 -55 -8 -88 -12 -34 -3 -74 -8 -91 -10 -311 -34
-849 -61 -1338 -68 -116 -2 -155 1 -144 9 67 49 108 87 200 187 44 47 134 182
174 258 33 64 84 173 88 190 1 3 4 12 7 20 49 130 79 239 107 390 16 84 20
111 26 165 4 28 8 64 11 80 16 114 22 448 11 605 -14 185 -65 416 -147 655
-22 66 -43 127 -45 135 -13 47 -152 376 -235 560 -47 103 -81 174 -183 390
-17 36 -37 73 -45 83 -8 9 -12 17 -9 17 3 0 -31 75 -77 168 -130 265 -154 317
-150 321 2 2 23 5 46 7 213 15 250 18 338 29 30 4 71 9 90 10 19 2 35 4 35 5
0 1 9 3 20 4 35 5 100 16 125 21 14 3 39 8 55 11 17 3 80 16 140 30 61 13 119
26 130 28 51 11 88 19 224 52 80 20 157 38 171 40 14 3 43 10 65 15 22 5 54
12 70 15 17 3 48 10 70 16 22 5 51 12 65 14 14 3 55 11 92 19 36 8 83 17 105
21 21 3 57 10 80 15 23 5 63 11 89 14 26 4 69 10 96 15 27 5 52 9 56 9 4 -1 9
0 12 1 3 1 16 3 30 5 14 1 50 5 80 9 103 12 145 17 213 21 38 2 70 5 72 7 6 5
445 1 519 -6z m-4989 -392 c44 -3 170 -7 280 -10 308 -7 546 -12 591 -13 41
-1 41 -2 57 -53 16 -51 42 -162 51 -220 3 -15 7 -31 9 -35 3 -5 8 -30 11 -58
3 -27 7 -59 10 -70 19 -95 29 -571 14 -670 -4 -22 -10 -67 -13 -100 -4 -32 -9
-68 -11 -80 -3 -11 -7 -39 -9 -62 -3 -23 -9 -53 -15 -68 -5 -14 -9 -29 -8 -33
3 -16 -27 -132 -35 -132 -4 0 -6 -4 -3 -8 7 -12 -62 -244 -94 -317 -5 -11 -23
-56 -41 -100 -18 -44 -45 -105 -61 -135 -15 -30 -28 -60 -28 -67 0 -7 -3 -13
-8 -13 -4 0 -13 -15 -21 -32 -14 -32 -98 -183 -113 -203 -5 -5 -29 -41 -55
-80 -144 -216 -370 -465 -527 -580 -15 -11 -37 -28 -49 -39 -65 -54 -310 -196
-340 -196 -9 0 -17 5 -17 11 0 17 -110 179 -169 249 -77 91 -161 171 -266 255
-27 22 -52 42 -55 45 -3 3 -48 39 -100 80 -52 41 -104 82 -115 91 -231 196
-286 248 -380 364 -166 204 -258 388 -256 512 0 53 10 72 75 148 49 57 63 79
118 185 13 25 27 48 31 51 5 3 8 8 7 10 -2 6 17 54 47 117 15 31 28 59 28 62
4 25 29 80 36 80 6 0 7 6 3 13 -4 6 -4 9 0 5 4 -3 9 -35 10 -71 4 -74 40 -162
87 -208 15 -15 67 -78 115 -141 174 -227 266 -288 423 -284 208 6 332 136 326
341 -1 44 -10 102 -19 130 -16 47 -64 144 -76 155 -4 3 -19 23 -36 44 -48 65
-168 161 -261 208 -80 40 -102 49 -168 66 -11 3 -54 6 -95 6 -108 1 -196 -45
-245 -128 -14 -22 -25 -38 -25 -35 0 7 24 68 46 116 8 17 14 34 14 37 0 4 26
62 59 130 54 113 127 236 155 261 6 6 22 24 35 40 84 109 267 271 371 326 25
13 47 27 48 32 2 4 9 7 15 7 6 0 18 7 28 16 17 15 20 14 45 -15 90 -107 258
-116 347 -19 29 31 52 75 48 91 -1 5 20 6 46 3 26 -4 84 -9 128 -12z m-1076
-1060 c31 -12 43 -24 52 -52 20 -57 12 -93 -26 -129 -49 -46 -101 -46 -151 0
-30 27 -36 40 -37 75 -1 46 24 89 64 109 32 17 51 16 98 -3z"/>
<path d="M8994 3485 c-3 -19 -9 -35 -13 -35 -3 0 -11 -17 -18 -38 -6 -20 -32
-81 -57 -135 -25 -54 -46 -102 -46 -107 0 -6 -4 -10 -10 -10 -5 0 -10 -6 -10
-13 0 -7 -31 -74 -70 -148 -38 -74 -78 -152 -89 -174 -31 -63 -85 -158 -184
-323 -51 -84 -102 -169 -114 -190 -12 -20 -25 -41 -30 -47 -4 -5 -33 -48 -63
-95 -30 -47 -58 -86 -62 -88 -5 -2 -8 -10 -8 -17 0 -7 -3 -15 -7 -17 -5 -1
-21 -23 -38 -48 -16 -25 -34 -50 -40 -57 -5 -6 -20 -27 -33 -45 -13 -18 -41
-57 -63 -87 -21 -29 -39 -57 -39 -61 0 -4 16 -27 36 -51 20 -24 31 -45 25 -48
-6 -4 -20 -28 -32 -55 -38 -87 -24 -195 35 -263 45 -52 58 -53 588 -53 l491 0
43 25 c31 18 50 39 69 79 l26 53 -6 199 c-9 266 -17 403 -30 564 -6 63 -18
223 -18 238 0 6 -3 12 -6 12 -3 0 -6 19 -6 43 -1 44 -11 154 -19 197 -2 14 -7
50 -11 80 -4 30 -8 62 -10 70 -4 20 -12 75 -21 135 -6 48 -9 61 -18 104 -2 10
-7 36 -10 57 -4 22 -12 57 -18 79 -6 22 -11 44 -9 49 2 8 -5 36 -45 170 -8 26
-14 54 -14 61 0 11 -20 25 -35 25 -2 0 -7 -16 -11 -35z"/>
<path d="M4578 2884 c-4 -4 -161 -8 -349 -9 -188 -2 -345 -7 -349 -12 -5 -4
-25 -39 -45 -78 -92 -173 -216 -396 -278 -500 -10 -16 -23 -42 -30 -57 -6 -16
-15 -28 -19 -28 -4 0 -8 -4 -8 -9 0 -5 -23 -49 -52 -98 -28 -48 -60 -106 -70
-127 l-20 -39 29 -41 c16 -23 64 -89 107 -149 l79 -107 -13 -46 c-31 -108 2
-224 76 -274 l38 -25 500 0 501 0 32 23 c50 36 85 102 88 170 2 31 4 62 5 67
1 6 2 12 1 15 -1 3 -4 57 -6 120 -5 139 -12 286 -21 400 -3 47 -7 105 -9 130
-9 130 -18 217 -26 231 -5 9 -6 19 -3 21 3 3 0 41 -6 84 -6 44 -13 93 -15 109
-1 17 -6 43 -9 59 -7 38 -18 114 -18 123 0 5 -4 16 -10 26 -7 15 -19 18 -49
15 -21 -2 -40 0 -42 5 -1 4 -6 5 -9 1z"/>
</g>
</svg>
