<svg aria-hidden="true" style="position: absolute; width: 0; height: 0; overflow: hidden;" version="1.1" xmlns="http://www.w3.org/2000/svg" xmlns:xlink="http://www.w3.org/1999/xlink">
  <defs>
    <symbol id="icon-bamboo" viewBox="0 0 12 21" >
      <path fill-rule="evenodd" clip-rule="evenodd" stroke-width="0" d="M10.38,19.932C10.13,18.928 9.384,17.75 8.803,16.478C9.301,17.568 9.799,18.659 10.38,19.932ZM11.783,19.817C10.954,18.457 10.455,16.908 9.956,15.36C9.542,14.909 9.212,15.098 8.882,15.286C8.306,15.845 7.728,15.946 8.39,16.485C9.219,17.845 9.8,19.117 10.216,20.484C10.381,20.389 10.711,20.201 10.876,20.107C11.205,19.918 11.287,19.642 11.783,19.817ZM8.222,15.205C7.971,14.202 7.225,13.024 6.644,11.752C7.142,12.842 7.64,13.933 8.222,15.205ZM5.98,10.298C5.813,9.476 4.984,8.116 4.486,7.026C4.984,8.116 5.399,9.025 6.063,10.479L5.98,10.298ZM7.384,10.183C6.638,9.005 6.138,7.456 5.556,5.726C5.225,5.457 4.896,5.645 4.566,5.834C3.989,6.393 3.411,6.494 4.073,7.032C4.819,8.21 5.483,9.665 5.899,11.031C6.064,10.937 6.394,10.749 6.559,10.654C6.806,10.284 6.971,10.19 7.384,10.183ZM3.822,5.571C3.655,4.75 2.826,3.39 2.328,2.299C2.826,3.39 3.241,4.299 3.905,5.753L3.822,5.571ZM5.225,5.457C4.479,4.279 3.98,2.73 3.398,1C3.067,0.731 2.737,0.919 2.407,1.108C1.831,1.667 1.17,1.586 1.915,2.306C2.661,3.484 3.325,4.939 3.741,6.305C3.906,6.211 4.236,6.022 4.318,5.746C4.648,5.558 4.812,5.463 5.225,5.457ZM4.908,10.681C4.247,10.601 3.751,10.426 3.091,10.345C3.751,10.426 4.164,10.419 4.908,10.681C3.916,10.332 3.172,10.069 2.264,9.901C3.008,10.163 3.668,10.244 4.66,10.594C3.585,10.062 2.677,9.894 1.85,9.45C2.594,9.712 3.337,9.975 4.412,10.506C3.502,9.88 2.511,9.53 1.519,9.181C2.511,9.53 3.585,10.062 4.908,10.681C5.156,10.769 5.156,10.769 4.908,10.681ZM4.578,10.87C4.578,10.87 4.413,10.964 4.33,10.783C3.092,10.803 2.018,10.729 1.028,10.837C1.936,11.005 2.927,10.897 3.917,10.789C2.927,10.897 2.101,10.911 1.359,11.106C2.184,11.093 3.175,10.985 4.165,10.877C3.34,10.89 2.597,11.086 1.854,11.281C2.845,11.173 3.588,10.978 4.413,10.964C3.835,11.065 3.258,11.166 2.68,11.268C3.258,11.166 3.835,11.065 4.413,10.964L4.578,10.87ZM5.076,11.961C4.746,12.149 4.5,12.52 4.005,12.802C4.335,12.614 4.581,12.243 5.076,11.961C4.581,12.243 4.005,12.802 3.51,13.085C4.005,12.802 4.416,12.338 4.911,12.055C4.252,12.432 3.592,12.809 3.015,13.368C3.427,12.903 4.087,12.526 4.746,12.149C4.087,12.526 3.427,12.903 2.767,13.281C3.427,12.903 4.169,12.25 4.993,11.779C5.158,11.685 5.241,11.866 5.076,11.961ZM5.159,12.142L4.994,12.237C4.336,13.072 3.842,13.812 3.513,14.459C3.842,13.812 4.336,13.072 4.747,12.607C4.419,13.253 4.007,13.718 3.678,14.365C4.007,13.718 4.501,12.977 4.829,12.331C4.501,12.977 4.337,13.53 4.09,13.9C4.337,13.53 4.666,12.883 4.994,12.237C4.83,12.789 4.584,13.159 4.502,13.435C4.749,13.065 4.747,12.607 4.994,12.237L5.159,12.142ZM5.571,11.678C5.736,11.584 5.736,11.584 5.901,11.489C5.984,11.671 5.984,11.671 6.232,11.759C7.061,13.118 7.642,14.391 8.058,15.758C8.223,15.663 8.552,15.475 8.717,15.38C8.964,15.01 9.129,14.916 9.542,14.909C8.796,13.731 8.297,12.182 7.715,10.452C7.384,10.183 7.054,10.371 6.724,10.56C6.312,11.025 5.899,11.031 5.818,11.307C5.735,11.126 5.487,11.038 5.404,10.856C5.321,10.675 5.073,10.587 4.659,10.136C3.584,9.604 1.849,8.992 0.94,8.824C1.189,9.369 2.512,9.988 3.586,10.52C2.513,10.446 1.11,10.561 0.285,11.032C1.112,11.477 4.166,11.335 5.074,11.045C5.074,11.045 5.239,10.951 5.322,11.132C5.57,11.22 5.818,11.307 5.901,11.489C5.736,11.584 5.571,11.678 5.323,11.59C5.323,11.59 5.158,11.685 4.828,11.873C3.921,12.163 2.849,13.005 2.273,13.564C2.769,13.739 3.758,13.173 4.5,12.52C4.006,13.26 3.43,14.277 3.102,14.923C3.844,14.728 5.16,12.6 5.241,11.866C5.406,11.772 5.406,11.772 5.571,11.678Z" ></path>
    </symbol>

    <symbol id="icon-banana-bamboo" viewBox="0 0 32 32">
      <path fill="#468e0d" stroke-width="0" d="M24.437 31.1c-1.061-2.076-1.971-3.854-2.88-5.634 1.061 2.076 2.423 3.998 2.88 5.634zM27 30.913c-1.514-2.218-2.426-4.744-3.338-7.27-0.756-0.735-1.358-0.428-1.961-0.12-1.053 0.912-2.108 1.077-0.9 1.955 1.515 2.218 2.576 4.294 3.336 6.524 0.302-0.154 0.904-0.462 1.205-0.615 0.602-0.308 0.752-0.758 1.657-0.473zM20.496 23.391c-1.061-2.076-1.972-3.854-2.881-5.634 1.061 2.076 2.424 3.998 2.881 5.634zM16.401 15.385l0.152 0.297c-1.213-2.373-1.971-3.855-2.88-5.634 0.91 1.778 2.424 3.997 2.729 5.337zM18.965 15.198c-1.363-1.922-2.274-4.448-3.338-7.27-0.605-0.439-1.207-0.131-1.809 0.176-1.053 0.912-2.109 1.076-0.9 1.955 1.363 1.922 2.575 4.294 3.336 6.524 0.301-0.154 0.904-0.462 1.204-0.616 0.451-0.604 0.752-0.757 1.507-0.768zM12.46 7.676l0.152 0.297c-1.213-2.373-1.971-3.855-2.88-5.634 0.91 1.778 2.423 3.997 2.729 5.337zM15.023 7.489c-1.362-1.922-2.274-4.448-3.338-7.27-0.604-0.439-1.206-0.131-1.809 0.176-1.052 0.912-2.259 0.779-0.899 1.955 1.362 1.922 2.575 4.293 3.335 6.523 0.302-0.153 0.904-0.461 1.053-0.912 0.602-0.308 0.904-0.461 1.657-0.472zM14.443 16.011c0.452 0.142 0.452 0.142 0 0-2.416-1.010-4.379-1.877-6.19-2.448 1.811 0.571 3.622 1.142 5.285 2.163-1.963-0.867-3.322-1.295-4.68-1.724 1.51 0.725 3.169 0.999 5.132 1.866-1.811-0.57-3.017-0.702-4.376-1.13 1.659 0.274 3.018 0.702 4.829 1.273-1.359-0.428-2.113-0.417-3.32-0.548 1.207 0.131 2.113 0.417 3.32 0.548zM13.84 16.319l-0.301 0.153c-1.055 0.165-2.111 0.33-3.166 0.495 1.055-0.164 2.111-0.329 3.166-0.495-1.509 0.023-2.864 0.341-4.674 0.517 1.357-0.318 2.713-0.638 4.22-0.66-1.809 0.176-3.618 0.352-5.126 0.374 1.356-0.318 2.864-0.34 4.674-0.517-1.809 0.176-3.618 0.351-5.278 0.078 1.809-0.176 3.769-0.056 6.031-0.089 0.152 0.296 0.452 0.142 0.452 0.142zM14.751 18.098c-0.603 0.308-1.053 0.912-1.957 1.372 0.602-0.308 1.053-0.912 1.957-1.372-0.904 0.461-1.957 1.372-2.86 1.834 0.904-0.462 1.655-1.219 2.559-1.681-1.205 0.615-2.409 1.23-3.463 2.142 0.752-0.757 1.957-1.372 3.161-1.987-1.204 0.615-2.409 1.23-3.613 1.845 1.204-0.615 2.558-1.681 4.065-2.449 0.301-0.154 0.452 0.142 0.152 0.297zM14.902 18.395l-0.301 0.153c-1.203 1.362-2.105 2.571-2.705 3.625 0.6-1.054 1.502-2.262 2.253-3.020-0.6 1.055-1.352 1.812-1.952 2.866 0.6-1.054 1.502-2.262 2.102-3.316-0.6 1.054-0.9 1.955-1.35 2.559 0.45-0.604 1.051-1.658 1.651-2.713-0.3 0.901-0.75 1.505-0.9 1.955 0.45-0.604 0.448-1.351 0.9-1.955l0.301-0.153zM15.654 17.636c0.301-0.154 0.301-0.154 0.602-0.308 0.152 0.297 0.152 0.297 0.604 0.439 1.515 2.218 2.576 4.294 3.336 6.524 0.302-0.154 0.904-0.462 1.205-0.615 0.45-0.605 0.752-0.758 1.506-0.769-1.363-1.922-2.274-4.448-3.338-7.27-0.604-0.439-1.207-0.131-1.809 0.176-0.752 0.757-1.506 0.769-1.655 1.219-0.152-0.297-0.605-0.439-0.756-0.735s-0.605-0.44-1.361-1.175c-1.963-0.867-5.132-1.866-6.791-2.141 0.454 0.89 2.869 1.9 4.832 2.767-1.96-0.12-4.524 0.067-6.029 0.836 1.511 0.725 7.089 0.494 8.746 0.021 0 0 0.302-0.154 0.453 0.142 0.452 0.143 0.906 0.286 1.057 0.582-0.302 0.153-0.602 0.308-1.055 0.165 0 0-0.302 0.153-0.904 0.461-1.657 0.473-3.614 1.846-4.667 2.758 0.906 0.285 2.712-0.638 4.067-1.703-0.902 1.208-1.953 2.866-2.553 3.921 1.357-0.319 3.76-3.79 3.907-4.987 0.302-0.153 0.302-0.153 0.603-0.308z"></path>
      <path fill="#ffee2e" stroke="#468E0D" stroke-width="0.2" d="M26.677 9.809l0.004-0.014v-0.014l-0.088-5.86v-0.010l-0.002-0.010c-0.045-0.215 0.053-0.423 0.269-0.591s0.538-0.284 0.896-0.307c0.709-0.045 1.535 0.28 1.938 1.251-0.173 0.847-0.271 1.683-0.368 2.514v0.002c-0.1 0.843-0.198 1.681-0.371 2.53l-0.009 0.041 0.023 0.035c2.251 3.468 2.498 7.248 1.389 10.666-1.11 3.419-3.58 6.478-6.765 8.489s-7.077 2.973-11.031 2.206c-3.948-0.767-7.966-3.259-11.405-8.168-0.127-0.563-0.178-1.033-0.151-1.407 0.027-0.379 0.134-0.651 0.315-0.827s0.447-0.273 0.823-0.268 0.852 0.11 1.439 0.328c9.596 4.214 20.226 0.279 23.094-10.585z"></path>
    </symbol>

    <symbol id="icon-fish-meat" viewBox="0 0 32 32">
      <path fill="#ee8383" stroke-width="0" d="M7.102 6.456c-0.080 0.065-0.16 0.131-0.239 0.198-0.182 0.152-0.361 0.307-0.537 0.462-1.514 1.346-2.862 2.886-3.831 4.608-0.971 1.724-1.546 3.63-1.492 5.503 0.024 0.845 0.18 1.743 0.717 2.495 0.093 0.13 0.196 0.255 0.31 0.371l1.939 2.009c0.221 0.229 0.484 0.427 0.79 0.581 0.459 0.231 1.003 0.352 1.581 0.307 0.5-0.038 0.971-0.196 1.389-0.405 0.415-0.208 0.777-0.463 1.102-0.72 0.651-0.514 1.179-1.033 1.739-1.369 1.001-0.601 2.299-0.774 3.605-0.802 1.315-0.029 2.727 0.067 4.208-0.255 1.803-0.391 3.474-1.391 4.661-2.737 1.185-1.345 1.862-2.998 1.945-4.622 0.086-1.708-0.483-3.359-1.598-4.622-0.064-0.072-0.131-0.143-0.198-0.213l-1.939-2.009c-1.107-1.151-2.665-1.919-4.392-2.155-1.906-0.261-3.921 0.126-5.729 0.893-1.48 0.628-2.821 1.499-4.031 2.481h-0.002zM7.946 7.274c0.085-0.070 0.172-0.138 0.259-0.205 1.046-0.816 2.172-1.52 3.375-2.031 1.599-0.679 3.355-1.004 4.955-0.785 1.527 0.209 2.92 0.928 3.853 1.984s1.419 2.465 1.347 3.896c-0.069 1.361-0.646 2.76-1.626 3.871-0.978 1.111-2.38 1.945-3.846 2.263-1.216 0.264-2.531 0.191-3.928 0.221-1.403 0.031-2.974 0.194-4.351 1.020-0.772 0.463-1.34 1.038-1.899 1.48-0.279 0.22-0.558 0.412-0.839 0.552-0.279 0.139-0.566 0.229-0.827 0.249-0.3 0.023-0.616-0.041-0.887-0.177-0.273-0.137-0.512-0.349-0.694-0.605-0.366-0.514-0.509-1.206-0.53-1.938-0.047-1.636 0.46-3.342 1.337-4.901 0.878-1.561 2.12-2.987 3.541-4.25 0.247-0.22 0.5-0.434 0.758-0.643zM8.715 8.080c-0.24 0.193-0.476 0.394-0.707 0.6-1.333 1.185-2.474 2.503-3.266 3.91-0.788 1.401-1.23 2.916-1.19 4.326 0.019 0.625 0.15 1.12 0.354 1.406 0.099 0.139 0.219 0.237 0.316 0.285 0.091 0.046 0.19 0.058 0.225 0.055s0.147-0.026 0.293-0.1c0.153-0.076 0.352-0.208 0.588-0.393 0.472-0.373 1.078-1.001 2.051-1.585 1.734-1.041 3.567-1.194 5.062-1.227 1.473-0.033 2.697 0.019 3.659-0.189 1.147-0.249 2.289-0.926 3.069-1.81 0.783-0.89 1.265-2.047 1.321-3.156 0.059-1.167-0.347-2.343-1.107-3.204-0.761-0.86-1.922-1.459-3.164-1.629-1.308-0.179-2.818 0.088-4.218 0.683-1.060 0.45-2.080 1.083-3.047 1.837-0.080 0.063-0.16 0.127-0.24 0.191zM14.422 9.594c0.46-0.375 1.009-0.623 1.528-0.689s0.961 0.055 1.234 0.337c0.271 0.282 0.35 0.701 0.217 1.166s-0.466 0.936-0.927 1.311c-0.228 0.186-0.48 0.342-0.742 0.461s-0.529 0.196-0.785 0.229c-0.256 0.033-0.498 0.019-0.709-0.038s-0.39-0.16-0.525-0.299c-0.134-0.14-0.223-0.314-0.26-0.515s-0.023-0.421 0.043-0.651c0.066-0.23 0.181-0.464 0.341-0.69s0.358-0.436 0.586-0.622z"></path>
      <path fill="#7a7871" stroke-width="0" d="M27.645 10c-2.216 2.002-2.481 5.864-2.481 5.864-20.956-4.441-25.164 11.85-25.164 11.85s13.834 9.041 26.309-8.834c0 0 2.742 2.653 5.691 2.58 0 0-2.566-2.028-3.735-5.104s-0.62-6.356-0.62-6.356zM5.27 25.401c-0.492 0.197-1.061-0.095-1.273-0.653s0.014-1.171 0.505-1.368c0.491-0.197 1.060 0.095 1.273 0.653s-0.014 1.17-0.504 1.368zM10.002 27.9c-0.024 0.124-0.102 0.215-0.201 0.255-0.064 0.026-0.137 0.030-0.211 0.007-0.187-0.059-0.306-0.272-0.265-0.475 0.732-3.658-1.923-5.341-2.035-5.411-0.173-0.106-0.244-0.34-0.16-0.524s0.289-0.248 0.462-0.143c0.033 0.021 3.262 2.043 2.41 6.291z"></path>
    </symbol>

    <symbol id="icon-left" viewBox="0 0 18 10">
      <path fill="white" stroke="white" stroke-width="0.3" d="M5.00179 9.10745L5.10646 9.2094L5.21112 9.10745L5.35128 8.97092L5.46159 8.86347L5.35128 8.75602L1.74841 5.24656L17 5.24656H17.15V5.09656V4.90344V4.75344H17L1.74878 4.75344L5.35129 1.24398L5.46158 1.13653L5.35128 1.02909L5.21112 0.892552L5.10646 0.790595L5.00179 0.892553L0.895334 4.89275L0.785027 5.0002L0.895338 5.10764L5.00179 9.10745Z" />
    </symbol>
    <symbol id="icon-right" viewBox="0 0 18 10">
      <path fill="white" stroke="white" stroke-width="0.3" d="M12.9982 0.892548L12.8935 0.7906L12.7889 0.892552L12.6487 1.02908L12.5384 1.13653L12.6487 1.24398L16.2516 4.75344H1H0.85V4.90344V5.09656V5.24656H1H16.2512L12.6487 8.75602L12.5384 8.86347L12.6487 8.97091L12.7889 9.10745L12.8935 9.2094L12.9982 9.10745L17.1047 5.10725L17.215 4.9998L17.1047 4.89236L12.9982 0.892548Z" />
    </symbol>

    <symbol id="icon-facebook" viewBox="0 0 32 32" stroke-width="0">
      <path d="M19 6h5v-6h-5c-3.86 0-7 3.14-7 7v3h-4v6h4v16h6v-16h5l1-6h-6v-3c0-0.542 0.458-1 1-1z"></path>
    </symbol>
    <symbol id="icon-twitter" viewBox="0 0 32 32" stroke-width="0">
      <path d="M32 7.075c-1.175 0.525-2.444 0.875-3.769 1.031 1.356-0.813 2.394-2.1 2.887-3.631-1.269 0.75-2.675 1.3-4.169 1.594-1.2-1.275-2.906-2.069-4.794-2.069-3.625 0-6.563 2.938-6.563 6.563 0 0.512 0.056 1.012 0.169 1.494-5.456-0.275-10.294-2.888-13.531-6.862-0.563 0.969-0.887 2.1-0.887 3.3 0 2.275 1.156 4.287 2.919 5.463-1.075-0.031-2.087-0.331-2.975-0.819 0 0.025 0 0.056 0 0.081 0 3.181 2.263 5.838 5.269 6.437-0.55 0.15-1.131 0.231-1.731 0.231-0.425 0-0.831-0.044-1.237-0.119 0.838 2.606 3.263 4.506 6.131 4.563-2.25 1.762-5.075 2.813-8.156 2.813-0.531 0-1.050-0.031-1.569-0.094 2.913 1.869 6.362 2.95 10.069 2.95 12.075 0 18.681-10.006 18.681-18.681 0-0.287-0.006-0.569-0.019-0.85 1.281-0.919 2.394-2.075 3.275-3.394z"></path>
    </symbol>
    <symbol id="icon-instagram" viewBox="0 0 32 32" stroke-width="0">
      <path d="M16 2.881c4.275 0 4.781 0.019 6.462 0.094 1.563 0.069 2.406 0.331 2.969 0.55 0.744 0.288 1.281 0.638 1.837 1.194 0.563 0.563 0.906 1.094 1.2 1.838 0.219 0.563 0.481 1.412 0.55 2.969 0.075 1.688 0.094 2.194 0.094 6.463s-0.019 4.781-0.094 6.463c-0.069 1.563-0.331 2.406-0.55 2.969-0.288 0.744-0.637 1.281-1.194 1.837-0.563 0.563-1.094 0.906-1.837 1.2-0.563 0.219-1.413 0.481-2.969 0.55-1.688 0.075-2.194 0.094-6.463 0.094s-4.781-0.019-6.463-0.094c-1.563-0.069-2.406-0.331-2.969-0.55-0.744-0.288-1.281-0.637-1.838-1.194-0.563-0.563-0.906-1.094-1.2-1.837-0.219-0.563-0.481-1.413-0.55-2.969-0.075-1.688-0.094-2.194-0.094-6.463s0.019-4.781 0.094-6.463c0.069-1.563 0.331-2.406 0.55-2.969 0.288-0.744 0.638-1.281 1.194-1.838 0.563-0.563 1.094-0.906 1.838-1.2 0.563-0.219 1.412-0.481 2.969-0.55 1.681-0.075 2.188-0.094 6.463-0.094zM16 0c-4.344 0-4.887 0.019-6.594 0.094-1.7 0.075-2.869 0.35-3.881 0.744-1.056 0.412-1.95 0.956-2.837 1.85-0.894 0.888-1.438 1.781-1.85 2.831-0.394 1.019-0.669 2.181-0.744 3.881-0.075 1.713-0.094 2.256-0.094 6.6s0.019 4.887 0.094 6.594c0.075 1.7 0.35 2.869 0.744 3.881 0.413 1.056 0.956 1.95 1.85 2.837 0.887 0.887 1.781 1.438 2.831 1.844 1.019 0.394 2.181 0.669 3.881 0.744 1.706 0.075 2.25 0.094 6.594 0.094s4.888-0.019 6.594-0.094c1.7-0.075 2.869-0.35 3.881-0.744 1.050-0.406 1.944-0.956 2.831-1.844s1.438-1.781 1.844-2.831c0.394-1.019 0.669-2.181 0.744-3.881 0.075-1.706 0.094-2.25 0.094-6.594s-0.019-4.887-0.094-6.594c-0.075-1.7-0.35-2.869-0.744-3.881-0.394-1.063-0.938-1.956-1.831-2.844-0.887-0.887-1.781-1.438-2.831-1.844-1.019-0.394-2.181-0.669-3.881-0.744-1.712-0.081-2.256-0.1-6.6-0.1v0z"></path>
      <path d="M16 7.781c-4.537 0-8.219 3.681-8.219 8.219s3.681 8.219 8.219 8.219 8.219-3.681 8.219-8.219c0-4.537-3.681-8.219-8.219-8.219zM16 21.331c-2.944 0-5.331-2.387-5.331-5.331s2.387-5.331 5.331-5.331c2.944 0 5.331 2.387 5.331 5.331s-2.387 5.331-5.331 5.331z"></path>
      <path d="M26.462 7.456c0 1.060-0.859 1.919-1.919 1.919s-1.919-0.859-1.919-1.919c0-1.060 0.859-1.919 1.919-1.919s1.919 0.859 1.919 1.919z"></path>
    </symbol>
    <symbol id="icon-youtube" viewBox="0 0 32 32" stroke-width="0">
      <path d="M31.681 9.6c0 0-0.313-2.206-1.275-3.175-1.219-1.275-2.581-1.281-3.206-1.356-4.475-0.325-11.194-0.325-11.194-0.325h-0.012c0 0-6.719 0-11.194 0.325-0.625 0.075-1.987 0.081-3.206 1.356-0.963 0.969-1.269 3.175-1.269 3.175s-0.319 2.588-0.319 5.181v2.425c0 2.587 0.319 5.181 0.319 5.181s0.313 2.206 1.269 3.175c1.219 1.275 2.819 1.231 3.531 1.369 2.563 0.244 10.881 0.319 10.881 0.319s6.725-0.012 11.2-0.331c0.625-0.075 1.988-0.081 3.206-1.356 0.962-0.969 1.275-3.175 1.275-3.175s0.319-2.587 0.319-5.181v-2.425c-0.006-2.588-0.325-5.181-0.325-5.181zM12.694 20.15v-8.994l8.644 4.513-8.644 4.481z"></path>
    </symbol>

    <symbol id="icon-usd" viewBox="0 0 16 32" stroke-width="0">
      <path d="M12.925 10.016c-0.666-0.624-1.33-1.082-1.954-1.413-0.622-0.291-1.33-0.458-2.12-0.458-0.914 0-1.579 0.208-2.035 0.582-0.458 0.373-0.707 0.997-0.707 1.827 0 0.582 0.25 1.123 0.749 1.496 0.498 0.416 1.080 0.79 1.829 1.165 0.747 0.374 1.538 0.747 2.368 1.163 0.832 0.416 1.621 0.872 2.37 1.454 0.747 0.582 1.33 1.246 1.827 2.078 0.499 0.83 0.749 1.829 0.749 2.992 0 1.787-0.499 3.325-1.454 4.613s-2.453 2.12-4.363 2.576v3.907h-3.616v-3.741c-1.080-0.125-2.245-0.414-3.45-0.914s-2.245-1.122-3.117-1.912l2.41-3.699c0.957 0.707 1.87 1.248 2.702 1.621 0.872 0.374 1.746 0.541 2.618 0.541 1.040 0 1.829-0.208 2.286-0.622 0.498-0.416 0.747-1.082 0.747-1.954 0-0.666-0.25-1.206-0.747-1.662-0.499-0.458-1.082-0.874-1.829-1.29-0.749-0.414-1.538-0.83-2.37-1.246-0.83-0.414-1.621-0.914-2.368-1.496-0.749-0.581-1.33-1.246-1.829-2.035-0.499-0.79-0.749-1.704-0.749-2.827 0-1.829 0.499-3.366 1.498-4.571 0.997-1.205 2.41-1.995 4.155-2.326v-3.866h3.616v3.782c1.205 0.166 2.243 0.539 3.158 1.080 0.914 0.541 1.704 1.205 2.451 1.995l-2.826 3.158z"></path>
    </symbol>

    <symbol id="icon-burger" viewBox="0 0 32 32">
      <path d="M29.091 10.182c0-0.803-0.652-1.455-1.455-1.455h-23.273c-0.803 0-1.455 0.652-1.455 1.455s0.652 1.455 1.455 1.455h23.273c0.803 0 1.455-0.652 1.455-1.455z"></path>
      <path d="M29.091 16c0-0.803-0.652-1.455-1.455-1.455h-23.273c-0.803 0-1.455 0.652-1.455 1.455s0.652 1.455 1.455 1.455h23.273c0.803 0 1.455-0.652 1.455-1.455z"></path>
      <path d="M29.091 21.818c0-0.803-0.652-1.455-1.455-1.455h-23.273c-0.803 0-1.455 0.652-1.455 1.455s0.652 1.455 1.455 1.455h23.273c0.803 0 1.455-0.652 1.455-1.455z"></path>
    </symbol>
    <symbol id="icon-close" viewBox="0 0 32 32">
      <path d="M26.027 24.415c0.516-0.615 0.436-1.533-0.179-2.049l-17.828-14.959c-0.615-0.516-1.533-0.436-2.049 0.179s-0.436 1.533 0.179 2.049l17.828 14.959c0.615 0.516 1.533 0.436 2.049-0.179z"></path>
      <path d="M26.029 7.585c-0.516-0.615-1.434-0.695-2.049-0.179l-17.828 14.959c-0.615 0.516-0.695 1.434-0.179 2.049s1.434 0.695 2.049 0.179l17.828-14.959c0.615-0.516 0.695-1.434 0.179-2.049z"></path>
    </symbol>

  </defs>
</svg>
