<?xml version="1.0" encoding="UTF-8" standalone="no"?>
<!DOCTYPE svg PUBLIC "-//W3C//DTD SVG 1.1//EN" "http://www.w3.org/Graphics/SVG/1.1/DTD/svg11.dtd">
<svg width="100%" height="100%" viewBox="0 0 72 38" version="1.1" xmlns="http://www.w3.org/2000/svg" xmlns:xlink="http://www.w3.org/1999/xlink" xml:space="preserve" xmlns:serif="http://www.serif.com/" style="fill-rule:evenodd;clip-rule:evenodd;">
    <g transform="matrix(1,0,0,1,0.5,0.5)">
        <path d="M54.589,28.517L54.589,28.517L54.585,28.52C51.592,30.46 48.821,32.097 46.348,33.387C44.964,34.11 43.442,34.843 42.019,35.396C40.604,35.946 39.259,36.329 38.241,36.329C37.577,36.329 36.988,36.165 36.64,35.703L36.64,35.703C36.289,35.234 36.299,34.614 36.491,33.965C36.686,33.31 37.081,32.568 37.591,31.795C38.613,30.246 40.132,28.517 41.563,27.019C42.631,25.901 43.854,24.701 45.211,23.439C40.873,23.824 36.015,24.026 31.057,24.026C23.763,24.026 16.236,23.572 10.526,22.696C7.674,22.258 5.262,21.713 3.558,21.06C2.707,20.735 2.017,20.376 1.535,19.98C1.054,19.585 0.75,19.125 0.75,18.599C0.75,18.073 1.054,17.613 1.535,17.218C2.017,16.822 2.707,16.464 3.558,16.138C5.262,15.485 7.674,14.94 10.526,14.502C16.236,13.625 23.763,13.171 31.057,13.171C36.274,13.171 41.336,13.392 45.826,13.813C43.923,12.372 42.235,11.008 40.792,9.746L40.792,9.746C39.234,8.381 37.568,6.793 36.413,5.341C35.836,4.616 35.377,3.912 35.125,3.278C34.876,2.648 34.811,2.031 35.12,1.534L35.12,1.534C35.429,1.037 36.011,0.821 36.686,0.766C37.366,0.709 38.201,0.809 39.106,1.004C40.92,1.396 43.082,2.185 44.995,2.978C47.565,4.041 50.469,5.427 53.633,7.097L53.636,7.098L56.049,8.402L56.049,8.402L56.055,8.406L59.524,10.418L59.527,10.419C62.885,12.426 66.341,14.533 69.799,16.681L69.799,16.681L70.132,16.888L70.442,17.081L70.15,17.3L69.837,17.536L69.837,17.536C66.83,19.805 63.576,22.209 60.167,24.685L60.166,24.686L58.715,25.728L58.715,25.728L58.709,25.732L54.589,28.517ZM45.869,32.467L45.869,32.467C48.309,31.193 51.051,29.573 54.018,27.65C54.018,27.65 54.018,27.65 54.019,27.65L56.295,26.145L59.558,23.844C59.558,23.844 59.559,23.843 59.559,23.843C62.735,21.537 65.775,19.293 68.607,17.163C65.37,15.157 62.139,13.19 58.997,11.311C58.997,11.311 58.996,11.311 58.996,11.311L56.777,9.998L53.146,8.013C53.145,8.013 53.145,8.013 53.144,8.012C50.008,6.357 47.133,4.986 44.598,3.938L44.598,3.938C40.916,2.413 38.774,1.895 37.538,1.796C36.298,1.697 36.039,2.02 36,2.082C35.963,2.143 35.788,2.517 36.428,3.584C37.065,4.649 38.479,6.339 41.477,8.964L41.477,8.964C43.264,10.53 45.442,12.259 47.949,14.102L48.757,14.696L49.509,15.249L48.581,15.146L47.584,15.036C42.694,14.496 36.979,14.209 31.057,14.209C22.238,14.209 14.873,14.809 9.718,15.685C7.138,16.124 5.123,16.631 3.758,17.162C3.074,17.428 2.567,17.695 2.236,17.954C1.898,18.217 1.788,18.435 1.788,18.599C1.788,18.763 1.898,18.981 2.236,19.245C2.567,19.503 3.074,19.77 3.758,20.036C5.123,20.567 7.138,21.074 9.718,21.513C14.873,22.389 22.238,22.988 31.057,22.988C36.58,22.988 41.972,22.736 46.649,22.259L47.463,22.176L48.219,22.099L47.656,22.61L47.05,23.161L47.05,23.161C45.248,24.794 43.655,26.334 42.313,27.737C39.561,30.617 38.303,32.426 37.762,33.543C37.219,34.667 37.429,35.023 37.471,35.078L37.471,35.079C37.512,35.133 37.795,35.435 39.025,35.225C40.248,35.017 42.336,34.312 45.869,32.467Z" style="fill:rgb(51,59,65);fill-rule:nonzero;stroke:rgb(51,59,65);stroke-width:0.5px;"/>
    </g>
</svg>
