<?xml version="1.0" encoding="UTF-8" standalone="no"?>
<!DOCTYPE svg PUBLIC "-//W3C//DTD SVG 1.1//EN" "http://www.w3.org/Graphics/SVG/1.1/DTD/svg11.dtd">
<svg width="100%" height="100%" viewBox="0 0 90 30" version="1.1" xmlns="http://www.w3.org/2000/svg" xmlns:xlink="http://www.w3.org/1999/xlink" xml:space="preserve" xmlns:serif="http://www.serif.com/" style="fill-rule:evenodd;clip-rule:evenodd;stroke-linejoin:round;stroke-miterlimit:2;">
    <g transform="matrix(1,0,0,1,0.5,0.5)">
        <path d="M0.324,16.653C0.732,17.373 5.576,15.133 13.422,12.106C17.966,10.345 22.629,8.908 27.376,7.805C33.083,6.49 38.947,5.987 44.794,6.31C50.584,6.678 56.258,8.103 61.534,10.515C65.956,12.488 70.185,14.866 74.168,17.618C77.022,19.603 79.325,21.416 81.095,22.821C80.198,22.826 79.319,22.84 78.481,22.867C76.311,22.937 74.354,23.078 72.708,23.278C69.417,23.679 67.368,24.314 67.342,25.09C67.316,25.867 69.318,26.637 72.577,27.254C74.206,27.562 76.149,27.833 78.309,28.047C79.389,28.154 80.524,28.247 81.701,28.323C82.289,28.357 82.888,28.391 83.496,28.425L84.415,28.467C84.607,28.471 84.618,28.484 85.047,28.482C85.348,28.476 85.647,28.433 85.938,28.356C86.44,28.223 86.903,27.973 87.289,27.626C87.675,27.279 87.973,26.845 88.159,26.361C88.279,26.05 88.355,25.725 88.386,25.394C88.405,25.198 88.411,25 88.404,24.804L88.388,24.495C88.364,24.112 88.325,23.741 88.275,23.381C88.176,22.705 88.042,22.036 87.873,21.374C87.553,20.127 87.223,19.088 86.896,18.042C86.238,15.973 85.57,14.128 84.929,12.599C83.649,9.54 82.48,7.741 81.726,7.927C80.972,8.114 80.776,10.25 81.068,13.553C81.214,15.205 81.482,17.148 81.864,19.285C81.906,19.504 81.95,19.735 81.993,19.958C80.34,18.003 78.543,16.173 76.618,14.485C72.711,11.07 68.388,8.162 63.752,5.83C57.975,2.854 51.644,1.106 45.158,0.697C38.74,0.33 32.305,1.033 26.117,2.777C21.157,4.174 16.355,6.084 11.792,8.478C4.078,12.568 -0.04,16.029 0.324,16.653Z" style="fill:rgb(70,142,13);fill-rule:nonzero;"/>
    </g>
</svg>
