<?xml version="1.0" encoding="UTF-8" standalone="no"?>
<!DOCTYPE svg PUBLIC "-//W3C//DTD SVG 1.1//EN" "http://www.w3.org/Graphics/SVG/1.1/DTD/svg11.dtd">
<svg width="100%" height="100%" viewBox="0 0 22 33" version="1.1" xmlns="http://www.w3.org/2000/svg" xmlns:xlink="http://www.w3.org/1999/xlink" xml:space="preserve" xmlns:serif="http://www.serif.com/" style="fill-rule:evenodd;clip-rule:evenodd;stroke-linejoin:round;stroke-miterlimit:2;">
    <g transform="matrix(1,0,0,1,-0.309141,0.124037)">
        <path d="M19.398,31.625C18.937,29.981 17.564,28.05 16.494,25.964C17.411,27.752 18.328,29.539 19.398,31.625ZM21.982,31.437C20.455,29.208 19.536,26.67 18.617,24.132C17.855,23.393 17.248,23.702 16.64,24.011C15.578,24.927 14.515,25.093 15.733,25.975C17.26,28.204 18.33,30.29 19.096,32.53C19.4,32.375 20.007,32.066 20.311,31.912C20.918,31.603 21.069,31.15 21.982,31.437ZM15.424,23.879C14.963,22.235 13.589,20.304 12.519,18.218C13.436,20.006 14.354,21.793 15.424,23.879ZM11.296,15.835C10.989,14.488 9.462,12.259 8.545,10.472C9.462,12.259 10.226,13.749 11.449,16.133L11.296,15.835ZM13.881,15.647C12.507,13.716 11.588,11.178 10.516,8.342C9.906,7.901 9.299,8.21 8.692,8.519C7.63,9.435 6.566,9.6 7.785,10.483C9.158,12.414 10.381,14.798 11.148,17.038C11.451,16.883 12.059,16.574 12.362,16.419C12.817,15.812 13.12,15.658 13.881,15.647ZM7.322,8.089C7.014,6.742 5.488,4.513 4.571,2.726C5.488,4.513 6.252,6.003 7.475,8.387L7.322,8.089ZM9.906,7.901C8.533,5.97 7.613,3.432 6.541,0.596C5.932,0.155 5.325,0.464 4.717,0.773C3.656,1.689 2.439,1.556 3.81,2.737C5.184,4.668 6.407,7.051 7.173,9.291C7.477,9.137 8.084,8.828 8.235,8.375C8.842,8.066 9.146,7.912 9.906,7.901ZM9.322,16.464C8.105,16.332 7.192,16.045 5.975,15.913C7.192,16.045 7.952,16.034 9.322,16.464C7.496,15.89 6.126,15.46 4.453,15.185C5.822,15.615 7.039,15.747 8.865,16.32C6.886,15.449 5.213,15.173 3.691,14.445C5.06,14.876 6.43,15.306 8.409,16.177C6.733,15.151 4.907,14.578 3.081,14.004C4.907,14.578 6.886,15.449 9.322,16.464C9.778,16.607 9.778,16.607 9.322,16.464ZM8.714,16.773C8.714,16.773 8.411,16.927 8.258,16.63C5.977,16.663 4.001,16.542 2.177,16.719C3.85,16.994 5.674,16.818 7.498,16.641C5.674,16.818 4.153,16.84 2.786,17.16C4.306,17.138 6.13,16.961 7.954,16.784C6.434,16.806 5.066,17.127 3.699,17.447C5.523,17.27 6.89,16.95 8.411,16.927C7.347,17.093 6.283,17.259 5.219,17.424C6.283,17.259 7.347,17.093 8.411,16.927L8.714,16.773ZM9.631,18.561C9.024,18.87 8.57,19.477 7.659,19.94C8.266,19.631 8.721,19.024 9.631,18.561C8.721,19.024 7.659,19.94 6.748,20.404C7.659,19.94 8.417,19.179 9.328,18.715C8.113,19.333 6.899,19.951 5.837,20.867C6.595,20.106 7.81,19.488 9.024,18.87C7.81,19.488 6.595,20.106 5.38,20.724C6.595,20.106 7.96,19.035 9.479,18.263C9.782,18.108 9.935,18.406 9.631,18.561ZM9.784,18.859L9.481,19.013C8.268,20.382 7.359,21.596 6.754,22.655C7.359,21.596 8.268,20.382 9.026,19.62C8.421,20.68 7.663,21.441 7.058,22.5C7.663,21.441 8.572,20.227 9.177,19.168C8.572,20.227 8.27,21.132 7.816,21.739C8.27,21.132 8.875,20.073 9.481,19.013C9.179,19.918 8.725,20.525 8.574,20.977C9.028,20.37 9.026,19.62 9.481,19.013L9.784,18.859ZM10.542,18.097C10.846,17.942 10.846,17.942 11.15,17.788C11.303,18.086 11.303,18.086 11.759,18.229C13.286,20.458 14.356,22.544 15.122,24.784C15.426,24.629 16.033,24.32 16.337,24.166C16.791,23.558 17.095,23.404 17.855,23.393C16.481,21.462 15.562,18.924 14.49,16.088C13.881,15.647 13.273,15.956 12.666,16.265C11.908,17.026 11.148,17.038 10.997,17.49C10.844,17.192 10.387,17.049 10.235,16.751C10.082,16.453 9.625,16.309 8.863,15.57C6.884,14.699 3.689,13.695 2.015,13.419C2.474,14.313 4.909,15.328 6.888,16.199C4.911,16.078 2.327,16.266 0.809,17.039C2.332,17.767 7.956,17.535 9.627,17.06C9.627,17.06 9.931,16.905 10.084,17.203C10.54,17.347 10.997,17.49 11.15,17.788C10.846,17.942 10.542,18.097 10.086,17.954C10.086,17.954 9.782,18.108 9.175,18.417C7.504,18.892 5.531,20.272 4.469,21.188C5.382,21.474 7.204,20.547 8.57,19.477C7.661,20.691 6.601,22.357 5.996,23.417C7.363,23.096 9.786,19.609 9.935,18.406C10.239,18.252 10.239,18.252 10.542,18.097Z" style="fill:rgb(85,184,7);"/>
    </g>
</svg>
