<?xml version="1.0" encoding="UTF-8" standalone="no"?>
<!DOCTYPE svg PUBLIC "-//W3C//DTD SVG 1.1//EN" "http://www.w3.org/Graphics/SVG/1.1/DTD/svg11.dtd">
<svg width="100%" height="100%" viewBox="0 0 44 34" version="1.1" xmlns="http://www.w3.org/2000/svg" xmlns:xlink="http://www.w3.org/1999/xlink" xml:space="preserve" xmlns:serif="http://www.serif.com/" style="fill-rule:evenodd;clip-rule:evenodd;">
    <g transform="matrix(1,0,0,1,5.5,0)">
        <path d="M24.398,31.625C23.937,29.981 22.564,28.05 21.494,25.964C22.411,27.752 23.328,29.539 24.398,31.625ZM26.982,31.437C25.455,29.208 24.536,26.67 23.617,24.132C22.855,23.393 22.248,23.702 21.64,24.011C20.578,24.927 19.515,25.093 20.733,25.975C22.26,28.204 23.33,30.29 24.096,32.53C24.4,32.375 25.007,32.066 25.311,31.912C25.918,31.603 26.069,31.15 26.982,31.437ZM20.424,23.879C19.963,22.235 18.589,20.304 17.519,18.218C18.436,20.006 19.354,21.793 20.424,23.879ZM16.296,15.835C15.989,14.488 14.462,12.259 13.545,10.472C14.462,12.259 15.226,13.749 16.449,16.133L16.296,15.835ZM18.881,15.647C17.507,13.716 16.588,11.178 15.515,8.342C14.906,7.901 14.299,8.21 13.692,8.519C12.63,9.435 11.566,9.6 12.785,10.483C14.158,12.414 15.381,14.798 16.148,17.038C16.451,16.883 17.059,16.574 17.362,16.419C17.817,15.812 18.12,15.658 18.881,15.647ZM12.322,8.089C12.014,6.742 10.488,4.513 9.571,2.726C10.488,4.513 11.252,6.003 12.475,8.387L12.322,8.089ZM14.906,7.901C13.533,5.97 12.613,3.432 11.541,0.596C10.932,0.155 10.325,0.464 9.717,0.773C8.656,1.689 7.439,1.556 8.81,2.737C10.184,4.668 11.407,7.051 12.173,9.291C12.477,9.137 13.084,8.828 13.235,8.375C13.842,8.066 14.146,7.912 14.906,7.901ZM14.322,16.464C13.105,16.332 12.192,16.045 10.975,15.913C12.192,16.045 12.952,16.034 14.322,16.464C12.496,15.89 11.126,15.46 9.453,15.185C10.822,15.615 12.039,15.747 13.865,16.32C11.886,15.449 10.213,15.173 8.691,14.445C10.06,14.876 11.43,15.306 13.409,16.177C11.733,15.151 9.907,14.578 8.081,14.004C9.907,14.578 11.886,15.449 14.322,16.464C14.778,16.607 14.778,16.607 14.322,16.464ZM13.714,16.773C13.714,16.773 13.411,16.927 13.258,16.63C10.977,16.663 9.001,16.542 7.177,16.719C8.85,16.994 10.674,16.818 12.498,16.641C10.674,16.818 9.153,16.84 7.786,17.16C9.306,17.138 11.13,16.961 12.954,16.784C11.434,16.806 10.066,17.127 8.699,17.447C10.523,17.27 11.89,16.95 13.411,16.927C12.347,17.093 11.283,17.259 10.219,17.424C11.283,17.259 12.347,17.093 13.411,16.927L13.714,16.773ZM14.632,18.561C14.024,18.87 13.57,19.477 12.659,19.94C13.266,19.631 13.721,19.024 14.632,18.561C13.721,19.024 12.659,19.94 11.748,20.404C12.659,19.94 13.417,19.179 14.328,18.715C13.113,19.333 11.899,19.951 10.837,20.867C11.595,20.106 12.81,19.488 14.024,18.87C12.81,19.488 11.595,20.106 10.38,20.724C11.595,20.106 12.96,19.035 14.479,18.263C14.782,18.108 14.935,18.406 14.632,18.561ZM14.784,18.859L14.481,19.013C13.268,20.382 12.359,21.596 11.754,22.655C12.359,21.596 13.268,20.382 14.026,19.62C13.421,20.68 12.663,21.441 12.058,22.5C12.663,21.441 13.572,20.227 14.177,19.168C13.572,20.227 13.27,21.132 12.816,21.739C13.27,21.132 13.875,20.073 14.481,19.013C14.179,19.918 13.725,20.525 13.574,20.977C14.028,20.37 14.026,19.62 14.481,19.013L14.784,18.859ZM15.542,18.097C15.846,17.942 15.846,17.942 16.15,17.788C16.303,18.086 16.303,18.086 16.759,18.229C18.286,20.458 19.356,22.544 20.122,24.784C20.426,24.629 21.033,24.32 21.337,24.166C21.791,23.558 22.095,23.404 22.855,23.393C21.481,21.462 20.562,18.924 19.49,16.088C18.881,15.647 18.273,15.956 17.666,16.265C16.908,17.026 16.148,17.038 15.997,17.49C15.844,17.192 15.387,17.049 15.235,16.751C15.082,16.453 14.625,16.309 13.863,15.57C11.884,14.699 8.689,13.695 7.015,13.419C7.474,14.313 9.909,15.328 11.888,16.199C9.911,16.078 7.327,16.266 5.809,17.039C7.332,17.767 12.956,17.535 14.627,17.06C14.627,17.06 14.931,16.905 15.084,17.203C15.54,17.347 15.997,17.49 16.15,17.788C15.846,17.942 15.542,18.097 15.086,17.954C15.086,17.954 14.782,18.108 14.175,18.417C12.504,18.892 10.531,20.272 9.469,21.188C10.383,21.474 12.204,20.547 13.57,19.477C12.661,20.691 11.601,22.357 10.996,23.417C12.363,23.096 14.786,19.609 14.935,18.406C15.239,18.252 15.239,18.252 15.542,18.097Z" style="fill:rgb(85,184,7);"/>
    </g>
    <g transform="matrix(1,0,0,1,5.5,0)">
        <path d="M28.174,10.239L28.178,10.225L28.178,10.211L28.082,4.153L28.082,4.143L28.08,4.133C28.031,3.911 28.138,3.696 28.374,3.522C28.61,3.348 28.962,3.228 29.354,3.205C30.129,3.159 31.032,3.494 31.473,4.498C31.284,5.374 31.177,6.238 31.071,7.097L31.071,7.099C30.962,7.971 30.855,8.837 30.665,9.714L30.655,9.756L30.68,9.792C33.141,13.377 33.411,17.285 32.199,20.818C30.985,24.353 28.285,27.515 24.803,29.594C21.322,31.673 17.066,32.667 12.742,31.874C8.425,31.081 4.032,28.505 0.273,23.43C0.134,22.848 0.078,22.362 0.108,21.975C0.138,21.584 0.255,21.302 0.452,21.12C0.649,20.937 0.941,20.838 1.352,20.843C1.763,20.848 2.284,20.957 2.925,21.182C13.417,25.538 25.039,21.47 28.174,10.239Z" style="fill:rgb(255,235,0);fill-rule:nonzero;stroke:rgb(85,184,7);stroke-width:0.2px;"/>
    </g>
</svg>
