<?xml version="1.0" encoding="UTF-8" standalone="no"?>
<!DOCTYPE svg PUBLIC "-//W3C//DTD SVG 1.1//EN" "http://www.w3.org/Graphics/SVG/1.1/DTD/svg11.dtd">
<svg width="100%" height="100%" viewBox="0 0 44 34" version="1.1" xmlns="http://www.w3.org/2000/svg" xmlns:xlink="http://www.w3.org/1999/xlink" xml:space="preserve" xmlns:serif="http://www.serif.com/" style="fill-rule:evenodd;clip-rule:evenodd;stroke-linejoin:round;stroke-miterlimit:2;">
    <g transform="matrix(1,0,0,1,-4,-2)">
        <path d="M12.102,8.988C12.007,9.072 11.912,9.156 11.819,9.242C11.603,9.437 11.391,9.636 11.182,9.836C9.387,11.566 7.788,13.544 6.639,15.757C5.488,17.972 4.805,20.421 4.869,22.828C4.897,23.914 5.082,25.067 5.719,26.034C5.829,26.201 5.952,26.361 6.087,26.511L8.365,29.067L8.387,29.092C8.649,29.385 8.961,29.641 9.324,29.838C9.868,30.135 10.514,30.29 11.199,30.232C11.792,30.183 12.35,29.98 12.846,29.712C13.338,29.445 13.767,29.117 14.153,28.787C14.925,28.127 15.551,27.46 16.216,27.028C17.403,26.256 18.942,26.034 20.492,25.998C22.052,25.961 23.726,26.084 25.483,25.67C27.621,25.168 29.603,23.883 31.011,22.153C32.416,20.425 33.219,18.301 33.318,16.214C33.42,14.02 32.745,11.898 31.423,10.276C31.347,10.183 31.268,10.092 31.188,10.002L28.889,7.421C27.576,5.942 25.729,4.955 23.68,4.652C21.419,4.316 19.03,4.814 16.885,5.8C15.13,6.607 13.539,7.726 12.104,8.988L12.102,8.988ZM13.102,10.039C13.203,9.949 13.306,9.862 13.409,9.775C14.649,8.727 15.985,7.822 17.412,7.166C19.308,6.294 21.391,5.876 23.289,6.157C25.1,6.425 26.752,7.349 27.859,8.706C28.967,10.064 29.542,11.873 29.456,13.712C29.374,15.46 28.69,17.258 27.528,18.686C26.368,20.113 24.706,21.185 22.967,21.594C21.525,21.933 19.965,21.839 18.309,21.878C16.645,21.918 14.782,22.127 13.149,23.188C12.234,23.783 11.56,24.521 10.897,25.089C10.566,25.372 10.235,25.618 9.902,25.798C9.571,25.977 9.231,26.092 8.921,26.118C8.565,26.148 8.19,26.065 7.869,25.89C7.545,25.714 7.262,25.441 7.046,25.113C6.612,24.452 6.442,23.564 6.417,22.623C6.361,20.521 6.963,18.329 8.003,16.326C9.044,14.321 10.517,12.488 12.203,10.865C12.496,10.583 12.796,10.307 13.102,10.039L13.102,10.039ZM14.015,11.075C13.73,11.323 13.451,11.581 13.177,11.846C11.596,13.369 10.243,15.062 9.304,16.87C8.37,18.67 7.845,20.617 7.893,22.428C7.915,23.231 8.071,23.867 8.313,24.235C8.43,24.413 8.573,24.539 8.688,24.601C8.796,24.66 8.913,24.675 8.955,24.672C8.996,24.668 9.129,24.638 9.302,24.544C9.483,24.446 9.72,24.277 9.999,24.039C10.559,23.56 11.277,22.753 12.431,22.003C14.488,20.666 16.661,20.469 18.434,20.427C20.181,20.385 21.632,20.452 22.774,20.184C24.134,19.864 25.489,18.994 26.414,17.858C27.343,16.715 27.914,15.228 27.981,13.803C28.051,12.303 27.57,10.793 26.668,9.686C25.766,8.581 24.388,7.811 22.916,7.593C21.365,7.363 19.574,7.706 17.914,8.47C16.657,9.048 15.447,9.861 14.3,10.83C14.205,10.911 14.11,10.993 14.015,11.075ZM20.783,13.019C21.329,12.537 21.98,12.218 22.595,12.134C23.209,12.049 23.735,12.205 24.058,12.567C24.38,12.929 24.473,13.468 24.315,14.065C24.157,14.662 23.762,15.268 23.216,15.75C22.946,15.989 22.647,16.19 22.336,16.342C22.025,16.494 21.709,16.594 21.405,16.636C21.101,16.678 20.815,16.661 20.564,16.587C20.313,16.512 20.101,16.382 19.941,16.203C19.782,16.023 19.677,15.799 19.633,15.541C19.588,15.284 19.606,15 19.684,14.704C19.762,14.409 19.899,14.108 20.088,13.818C20.276,13.529 20.513,13.258 20.783,13.019Z" style="fill:rgb(214,79,77);"/>
    </g>
    <g transform="matrix(1,0,0,1,-4,-2)">
        <path d="M43.06,12.664C40.626,14.794 40.333,18.902 40.333,18.902C17.313,14.178 12.689,31.507 12.689,31.507C12.689,31.507 27.887,41.124 41.592,22.11C41.592,22.11 44.604,24.932 47.844,24.854C47.844,24.854 45.025,22.697 43.741,19.425C42.458,16.153 43.06,12.664 43.06,12.664ZM18.479,29.047C17.939,29.257 17.313,28.946 17.08,28.352C16.847,27.758 17.095,27.106 17.635,26.897C18.174,26.687 18.8,26.998 19.033,27.592C19.266,28.185 19.018,28.837 18.479,29.047ZM23.678,31.705C23.652,31.837 23.566,31.934 23.457,31.976C23.387,32.004 23.306,32.008 23.225,31.983C23.02,31.92 22.889,31.694 22.934,31.478C23.738,27.587 20.821,25.796 20.698,25.722C20.508,25.609 20.43,25.36 20.522,25.165C20.613,24.97 20.84,24.901 21.03,25.013C21.066,25.035 24.612,27.186 23.678,31.705Z" style="fill:rgb(122,120,113);fill-rule:nonzero;"/>
    </g>
</svg>
