<?xml version="1.0" encoding="UTF-8" standalone="no"?>
<!DOCTYPE svg PUBLIC "-//W3C//DTD SVG 1.1//EN" "http://www.w3.org/Graphics/SVG/1.1/DTD/svg11.dtd">
<svg width="100%" height="100%" viewBox="0 0 130 130" version="1.1" xmlns="http://www.w3.org/2000/svg" xmlns:xlink="http://www.w3.org/1999/xlink" xml:space="preserve" xmlns:serif="http://www.serif.com/" style="fill-rule:evenodd;clip-rule:evenodd;">
    <g transform="matrix(1,0,0,1,1.5,28.5)">
        <path d="M45.398,50.054C45.218,49.714 45.038,49.43 44.918,49.089C44.077,47.157 44.077,45.68 44.377,43.806C44.617,42.442 44.557,41.76 44.137,41.249C43.656,40.681 42.936,40.624 41.914,40.511L41.734,40.511C41.434,40.454 41.134,40.454 40.893,40.454C38.551,40.34 37.229,40.397 36.629,41.249C36.028,42.045 36.448,43.237 37.289,44.942C37.71,45.794 37.89,46.646 38.01,47.271C36.989,47.328 35.788,47.782 34.346,48.35C31.403,49.486 27.378,51.077 22.453,49.657C16.626,48.009 11.761,43.635 9.118,41.249C7.857,40.113 7.316,39.602 6.896,39.488C6.295,39.318 5.514,39.715 5.094,39.943L4.853,40.056C4.553,40.283 4.132,40.624 3.952,41.022C3.532,42.329 3.472,44.771 4.493,47.498C4.132,47.328 3.892,47.271 3.652,47.214C3.051,47.157 2.391,47.612 1.85,48.123L1.67,48.293C1.369,48.578 1.009,49.032 1.009,49.486C0.889,51.588 1.97,54.883 4.553,57.951L4.493,57.951C3.892,58.065 3.352,58.746 2.991,59.371L2.991,59.598C2.811,59.996 2.631,60.507 2.691,60.962C3.292,63.291 5.754,66.643 9.899,68.972C12.422,70.392 16.266,71.755 21.552,71.755C23.894,71.755 26.537,71.471 29.421,70.79C36.268,69.199 42.635,64.597 45.218,59.201C46.84,56.019 46.9,52.838 45.398,50.054ZM5.033,41.306C5.033,41.306 5.094,41.249 5.094,41.192C5.214,41.42 5.394,41.704 5.574,41.988C7.136,44.658 10.56,50.679 18.609,53.69C13.623,52.497 9.178,50.054 6.535,48.578C6.355,48.464 6.175,48.35 5.995,48.293C4.733,45.51 4.553,42.783 5.033,41.306ZM2.15,49.6C2.15,49.6 2.15,49.486 2.27,49.373C2.451,49.543 2.751,49.884 3.051,50.168C5.574,52.838 11.521,59.144 22.393,59.769L23.414,59.769C24.495,59.769 25.636,59.655 26.657,59.428C26.537,59.485 26.357,59.485 26.237,59.542C19.449,61.075 11.941,59.371 7.917,58.462C7.256,58.292 6.715,58.178 6.295,58.121C3.231,55.11 2.03,51.588 2.15,49.6ZM44.257,58.86C41.794,63.916 35.788,68.347 29.24,69.824C12.542,73.63 4.733,64.484 3.772,60.734C3.772,60.678 3.772,60.621 3.832,60.451C4.132,60.564 4.493,60.791 4.853,61.019C8.277,63.007 16.266,67.608 27.378,65.052C34.706,63.405 38.431,58.065 40.593,54.145C40.713,53.917 40.653,53.577 40.353,53.463C40.112,53.349 39.752,53.406 39.632,53.69C37.59,57.383 33.986,62.496 27.078,64.086C16.386,66.529 8.698,62.041 5.394,60.166C4.913,59.882 4.553,59.655 4.253,59.542C4.493,59.201 4.733,58.973 4.853,58.973C5.154,58.917 6.415,59.201 7.616,59.485C10.5,60.166 15.185,61.189 20.17,61.189C22.212,61.189 24.375,61.019 26.417,60.507C31.703,59.314 34.827,56.303 37.349,53.236C37.53,53.009 37.469,52.668 37.229,52.497C36.989,52.327 36.629,52.384 36.448,52.611C36.208,52.895 35.908,53.236 35.667,53.52C31.403,57.269 27.018,58.973 22.333,58.689C11.941,58.121 6.175,52.043 3.712,49.43C3.352,49.032 3.111,48.805 2.871,48.578C3.171,48.35 3.412,48.237 3.532,48.237C3.832,48.293 4.853,48.862 5.874,49.43C9.358,51.361 15.845,54.94 22.693,55.338L23.714,55.338C26.117,55.338 28.159,54.883 29.961,54.145L30.021,54.145C30.081,54.145 30.081,54.088 30.141,54.088C32.424,53.179 34.226,51.929 35.788,50.907C36.328,50.566 36.809,50.225 37.229,49.941C37.469,49.77 37.53,49.486 37.409,49.259C37.229,49.032 36.929,48.975 36.689,49.089C36.208,49.373 35.728,49.714 35.187,50.054C33.625,51.077 31.823,52.327 29.541,53.179C26.597,54.031 23.714,54.088 20.951,53.293C11.821,50.736 8.097,44.203 6.475,41.42C6.235,41.022 6.115,40.738 5.934,40.511C6.235,40.397 6.415,40.34 6.535,40.34C6.775,40.454 7.556,41.136 8.337,41.874C10.98,44.26 15.966,48.748 22.032,50.452C23.534,50.85 24.976,51.02 26.297,51.02C29.661,51.02 32.424,49.941 34.646,49.089C36.208,48.464 37.53,47.953 38.431,48.123L38.611,48.123C38.671,48.123 38.671,48.123 38.731,48.066C38.731,48.066 38.791,48.066 38.791,48.009C38.851,48.009 38.851,47.953 38.911,47.953L38.971,47.896C38.971,47.896 39.031,47.839 39.031,47.782C39.031,47.725 39.031,47.725 39.091,47.669L39.091,47.498C39.031,46.816 38.851,45.453 38.25,44.203C37.95,43.578 37.169,41.988 37.53,41.533C37.83,41.079 39.452,41.136 40.893,41.192C41.134,41.192 41.374,41.192 41.614,41.249L41.794,41.249C42.575,41.306 43.116,41.42 43.296,41.59C43.476,41.817 43.476,42.385 43.356,43.351C42.996,45.339 42.996,47.044 43.957,49.202C44.077,49.543 44.257,49.884 44.437,50.225C45.759,53.009 45.699,55.849 44.257,58.86Z" style="fill:rgb(51,59,65);fill-rule:nonzero;stroke:rgb(51,59,65);stroke-width:0.7px;"/>
    </g>
    <g transform="matrix(1,0,0,1,1.5,28.5)">
        <path d="M42.696,57.894C42.456,57.78 42.096,57.894 41.976,58.121C39.693,62.779 34.107,66.87 28.04,68.233C27.74,68.29 27.56,68.574 27.62,68.858C27.68,69.085 27.92,69.256 28.16,69.256L28.28,69.256C34.708,67.835 40.594,63.518 42.997,58.576C43.117,58.348 42.997,58.064 42.696,57.894Z" style="fill:rgb(51,59,65);fill-rule:nonzero;stroke:rgb(51,59,65);stroke-width:0.7px;"/>
    </g>
    <g transform="matrix(1,0,0,1,1.5,28.5)">
        <path d="M68.626,1.008C65.428,0.905 62.282,1.828 59.642,3.641C57.002,5.454 55.006,8.064 53.942,11.092C53.892,11.235 53.805,11.361 53.69,11.458C53.575,11.555 53.436,11.619 53.288,11.643C51.667,11.919 50.197,12.766 49.143,14.032C48.089,15.299 47.52,16.902 47.539,18.552C47.557,20.202 48.162,21.792 49.244,23.034C50.326,24.277 51.814,25.091 53.441,25.33C53.603,25.354 53.754,25.424 53.877,25.534C53.999,25.643 54.087,25.786 54.129,25.945C54.925,28.921 56.64,31.567 59.028,33.503C61.416,35.44 64.354,36.566 67.419,36.721C66.75,39.175 66.345,41.693 66.21,44.233L61.149,43.43C60.082,43.261 58.992,43.524 58.118,44.161C57.245,44.799 56.659,45.759 56.49,46.83C56.321,47.901 56.583,48.995 57.218,49.872C57.853,50.749 58.809,51.337 59.876,51.507L66.75,52.597C66.945,53.666 67.188,54.725 67.48,55.771C65.916,57.479 65.048,59.715 65.048,62.035L65.048,63.481C65.048,63.705 64.959,63.919 64.802,64.076C64.645,64.234 64.432,64.323 64.21,64.323L63.708,64.323C63.113,64.323 62.524,64.44 61.975,64.668C61.425,64.897 60.926,65.231 60.505,65.653C60.084,66.075 59.75,66.577 59.523,67.128C59.295,67.68 59.178,68.271 59.178,68.868L59.178,70.054C59.178,70.389 59.243,70.721 59.371,71.03C59.499,71.34 59.686,71.621 59.923,71.858C60.159,72.094 60.439,72.282 60.748,72.41C61.056,72.538 61.387,72.604 61.72,72.604L93.923,72.604C98.252,72.604 102.532,71.686 106.483,69.91C110.434,68.133 113.966,65.539 116.848,62.296C121.41,57.704 124.459,51.818 125.582,45.432C126.273,39.885 124.773,34.287 121.404,29.836C118.774,26.448 115.2,23.92 111.137,22.573C108.33,21.724 105.327,21.796 102.564,22.779C99.801,23.761 97.423,25.603 95.774,28.036C95.46,28.497 95.241,29.015 95.127,29.562C95.013,30.108 95.008,30.671 95.112,31.22C95.215,31.768 95.426,32.291 95.73,32.757C96.035,33.224 96.429,33.626 96.888,33.94C97.348,34.254 97.865,34.474 98.409,34.587C98.953,34.7 99.515,34.705 100.061,34.6C100.607,34.496 101.127,34.284 101.592,33.977C102.056,33.671 102.456,33.275 102.768,32.813C103.395,31.888 104.296,31.185 105.343,30.802C106.39,30.418 107.53,30.375 108.603,30.678C111.011,31.501 113.128,33.008 114.699,35.016C116.667,37.637 117.567,40.913 117.214,44.176C116.343,48.846 114.066,53.135 110.689,56.463C107.458,60.178 103.093,62.715 98.276,63.679C98.236,63.687 98.195,63.685 98.156,63.673C98.118,63.66 98.083,63.639 98.055,63.609C98.027,63.58 98.007,63.545 97.996,63.506C97.985,63.467 97.984,63.425 97.993,63.386C99.479,57.132 99.056,50.574 96.78,44.565C95.615,40.795 93.669,37.315 91.072,34.353C88.474,31.39 85.283,29.012 81.706,27.372C81.884,26.905 82.037,26.428 82.166,25.945C82.209,25.786 82.297,25.643 82.419,25.534C82.542,25.424 82.693,25.353 82.855,25.33C84.482,25.09 85.97,24.276 87.052,23.033C88.133,21.79 88.738,20.201 88.756,18.55C88.774,16.9 88.204,15.298 87.15,14.031C86.096,12.765 84.626,11.918 83.005,11.643C82.857,11.618 82.718,11.554 82.603,11.457C82.488,11.361 82.401,11.234 82.351,11.092C81.342,8.219 79.491,5.718 77.042,3.919C74.593,2.119 71.659,1.105 68.626,1.008ZM67.683,2.114C70.646,2.018 73.563,2.873 76.01,4.554C78.458,6.234 80.308,8.654 81.293,11.462C81.409,11.791 81.61,12.082 81.875,12.306C82.141,12.53 82.462,12.679 82.804,12.737C84.165,12.968 85.399,13.679 86.284,14.743C87.169,15.806 87.647,17.151 87.632,18.536C87.617,19.922 87.11,21.257 86.203,22.3C85.295,23.344 84.046,24.028 82.681,24.23C82.305,24.285 81.954,24.449 81.67,24.703C81.386,24.956 81.182,25.287 81.084,25.655C80.664,27.227 79.964,28.71 79.017,30.031C79.145,27.442 78.252,24.907 76.531,22.975C76.512,22.948 76.498,22.918 76.49,22.886C76.482,22.854 76.481,22.82 76.487,22.788C76.493,22.755 76.505,22.724 76.523,22.697C76.541,22.669 76.564,22.645 76.591,22.627C77.958,21.452 78.835,19.805 79.048,18.011C79.261,16.218 78.794,14.41 77.741,12.945C76.688,11.481 75.125,10.467 73.363,10.106C71.6,9.744 69.766,10.061 68.225,10.993C68.002,11.128 67.746,11.2 67.486,11.2C67.225,11.2 66.969,11.128 66.746,10.993L66.73,10.993C65.189,10.065 63.357,9.751 61.596,10.114C59.836,10.477 58.276,11.49 57.224,12.953C56.172,14.416 55.706,16.222 55.918,18.014C56.13,19.805 57.004,21.452 58.367,22.627C58.39,22.65 58.408,22.677 58.421,22.706C58.433,22.736 58.44,22.769 58.44,22.801C58.44,22.833 58.433,22.865 58.421,22.895C58.408,22.925 58.39,22.952 58.367,22.975C57.13,24.366 56.312,26.081 56.008,27.921C55.664,27.192 55.386,26.434 55.176,25.655C55.078,25.287 54.875,24.957 54.592,24.703C54.309,24.45 53.958,24.286 53.583,24.23C52.217,24.028 50.969,23.344 50.061,22.3C49.153,21.257 48.646,19.922 48.632,18.536C48.617,17.151 49.095,15.806 49.98,14.743C50.865,13.679 52.099,12.968 53.459,12.737C53.801,12.679 54.121,12.53 54.386,12.306C54.651,12.081 54.852,11.79 54.967,11.462C55.902,8.799 57.616,6.481 59.885,4.813C62.154,3.145 64.872,2.204 67.683,2.114ZM62.815,11.07C62.971,11.064 63.127,11.064 63.282,11.07C64.297,11.114 65.285,11.413 66.155,11.94C66.551,12.179 67.004,12.305 67.465,12.305C67.926,12.305 68.379,12.179 68.775,11.94C70.078,11.155 71.628,10.89 73.117,11.198C74.605,11.505 75.925,12.362 76.814,13.6C77.703,14.838 78.097,16.366 77.918,17.881C77.738,19.396 76.998,20.789 75.845,21.783C75.709,21.9 75.599,22.044 75.519,22.205C75.439,22.366 75.393,22.542 75.382,22.721C75.37,22.901 75.395,23.081 75.454,23.251C75.513,23.421 75.605,23.577 75.725,23.711C76.668,24.77 77.34,26.045 77.683,27.424C78.025,28.802 78.028,30.245 77.69,31.625C76.291,33.046 74.595,34.138 72.725,34.82C70.854,35.501 68.855,35.757 66.874,35.567C64.893,35.377 62.979,34.747 61.27,33.722C59.562,32.697 58.102,31.304 56.996,29.642C56.97,27.456 57.761,25.34 59.212,23.711C59.332,23.576 59.423,23.42 59.481,23.249C59.539,23.079 59.563,22.899 59.551,22.719C59.539,22.54 59.491,22.364 59.411,22.203C59.33,22.043 59.218,21.9 59.082,21.783C58.153,20.986 57.485,19.925 57.166,18.74C56.847,17.556 56.893,16.302 57.296,15.143C57.699,13.985 58.442,12.976 59.426,12.248C60.411,11.521 61.591,11.109 62.813,11.067L62.815,11.07ZM107.06,23.096C108.33,23.084 109.593,23.265 110.81,23.631C114.656,24.911 118.037,27.307 120.528,30.516C123.714,34.726 125.137,40.019 124.493,45.267C123.402,51.429 120.453,57.108 116.045,61.534C113.266,64.667 109.859,67.174 106.047,68.891C102.235,70.608 98.104,71.495 93.926,71.495L61.723,71.495C61.535,71.495 61.348,71.458 61.173,71.386C60.999,71.314 60.84,71.208 60.707,71.074C60.573,70.94 60.467,70.781 60.395,70.606C60.322,70.431 60.285,70.243 60.285,70.054L60.285,68.868C60.285,68.417 60.374,67.97 60.546,67.553C60.718,67.136 60.971,66.757 61.289,66.438C61.607,66.119 61.984,65.866 62.4,65.693C62.816,65.521 63.261,65.432 63.711,65.433L64.212,65.433C64.468,65.433 64.721,65.383 64.957,65.285C65.193,65.187 65.407,65.043 65.588,64.862C65.769,64.681 65.912,64.466 66.01,64.229C66.108,63.992 66.158,63.738 66.159,63.482L66.159,62.035C66.208,59.909 67.084,57.887 68.599,56.4C70.114,54.914 72.149,54.082 74.267,54.082C76.385,54.082 78.42,54.914 79.935,56.4C81.45,57.887 82.326,59.909 82.376,62.035L82.376,64.511C82.38,64.656 82.44,64.793 82.543,64.893C82.646,64.993 82.784,65.05 82.928,65.05C83.072,65.05 83.21,64.993 83.313,64.893C83.416,64.793 83.476,64.656 83.481,64.511L83.481,62.035C83.481,60.414 83.057,58.822 82.252,57.418C81.447,56.013 80.289,54.846 78.893,54.032C79.743,53.83 80.544,53.46 81.249,52.941C81.953,52.423 82.547,51.768 82.994,51.015C83.441,50.261 83.733,49.426 83.852,48.557C83.971,47.688 83.915,46.805 83.687,45.958C83.097,43.765 82.279,41.641 81.249,39.618C81.182,39.487 81.066,39.389 80.926,39.343C80.786,39.298 80.634,39.311 80.504,39.378C80.373,39.445 80.275,39.562 80.23,39.702C80.185,39.842 80.197,39.995 80.264,40.126C81.259,42.079 82.048,44.131 82.617,46.248C82.852,47.123 82.866,48.042 82.657,48.924C82.448,49.805 82.023,50.62 81.42,51.294C80.818,51.968 80.057,52.48 79.207,52.783C78.357,53.087 77.444,53.172 76.553,53.031L60.053,50.411C59.278,50.285 58.585,49.856 58.125,49.218C57.664,48.579 57.475,47.784 57.597,47.006C57.72,46.227 58.145,45.529 58.779,45.065C59.413,44.6 60.205,44.407 60.98,44.527L73.683,46.545C73.827,46.566 73.974,46.53 74.091,46.443C74.209,46.356 74.287,46.227 74.31,46.082C74.333,45.938 74.297,45.79 74.212,45.671C74.127,45.553 73.998,45.472 73.854,45.449L67.311,44.41C67.44,41.812 67.861,39.237 68.565,36.734C71.244,36.657 73.849,35.837 76.093,34.365C78.336,32.893 80.129,30.826 81.274,28.393C84.709,29.971 87.773,32.259 90.265,35.109C92.758,37.958 94.623,41.303 95.739,44.926C97.946,50.736 98.357,57.08 96.92,63.128C96.867,63.349 96.871,63.58 96.93,63.799C96.99,64.018 97.103,64.218 97.26,64.382C97.417,64.545 97.612,64.666 97.828,64.734C98.043,64.802 98.273,64.814 98.494,64.77C103.538,63.76 108.109,61.109 111.499,57.226C115.029,53.731 117.406,49.233 118.309,44.339C118.705,40.778 117.728,37.201 115.578,34.341C113.868,32.151 111.559,30.509 108.933,29.617C107.634,29.245 106.252,29.293 104.982,29.755C103.712,30.216 102.62,31.068 101.86,32.189C101.629,32.53 101.333,32.822 100.99,33.048C100.647,33.274 100.262,33.43 99.859,33.507C99.456,33.584 99.041,33.58 98.639,33.497C98.237,33.413 97.856,33.25 97.516,33.018C97.177,32.786 96.886,32.49 96.661,32.145C96.436,31.8 96.281,31.415 96.204,31.01C96.127,30.605 96.131,30.189 96.215,29.785C96.298,29.381 96.46,28.998 96.691,28.658C97.843,26.959 99.388,25.565 101.194,24.597C103,23.628 105.013,23.113 107.06,23.096ZM67.914,52.782L71.213,53.305C70.188,53.667 69.234,54.209 68.397,54.905C68.215,54.202 68.055,53.494 67.917,52.782L67.914,52.782Z" style="fill:rgb(51,59,65);fill-rule:nonzero;stroke:rgb(51,59,65);stroke-width:0.7px;"/>
    </g>
    <g transform="matrix(1,0,0,1,1.5,28.5)">
        <path d="M72.068,14.631C71.449,14.642 70.86,14.898 70.429,15.343C69.998,15.789 69.759,16.387 69.766,17.009C69.766,17.633 70.013,18.231 70.453,18.673C70.892,19.114 71.489,19.362 72.111,19.362C72.733,19.362 73.329,19.114 73.769,18.673C74.208,18.231 74.455,17.633 74.455,17.009C74.459,16.694 74.399,16.381 74.28,16.09C74.161,15.799 73.985,15.535 73.762,15.313C73.54,15.091 73.275,14.916 72.984,14.799C72.693,14.682 72.381,14.625 72.068,14.631ZM72.087,15.753C72.253,15.749 72.418,15.779 72.572,15.841C72.726,15.903 72.866,15.995 72.984,16.112C73.102,16.229 73.195,16.369 73.258,16.523C73.321,16.677 73.353,16.842 73.351,17.009C73.351,17.172 73.319,17.334 73.257,17.485C73.194,17.636 73.103,17.773 72.988,17.889C72.873,18.005 72.736,18.096 72.586,18.159C72.435,18.221 72.274,18.254 72.111,18.254C71.948,18.254 71.787,18.221 71.637,18.159C71.486,18.096 71.349,18.005 71.234,17.889C71.119,17.773 71.028,17.636 70.966,17.485C70.903,17.334 70.871,17.172 70.871,17.009C70.868,16.681 70.994,16.364 71.222,16.129C71.45,15.894 71.761,15.759 72.087,15.753Z" style="fill:rgb(51,59,65);fill-rule:nonzero;stroke:rgb(51,59,65);stroke-width:0.7px;"/>
    </g>
    <g transform="matrix(1,0,0,1,1.5,28.5)">
        <path d="M62.785,14.631C62.166,14.642 61.577,14.898 61.146,15.343C60.715,15.789 60.477,16.387 60.483,17.008C60.474,17.323 60.528,17.636 60.642,17.929C60.756,18.222 60.927,18.49 61.145,18.715C61.364,18.941 61.625,19.12 61.914,19.243C62.203,19.365 62.513,19.428 62.826,19.428C63.14,19.428 63.45,19.365 63.739,19.243C64.027,19.12 64.289,18.941 64.507,18.715C64.725,18.49 64.897,18.222 65.01,17.929C65.124,17.636 65.178,17.323 65.169,17.008C65.173,16.694 65.113,16.382 64.994,16.091C64.875,15.8 64.7,15.536 64.477,15.314C64.255,15.092 63.991,14.918 63.7,14.8C63.409,14.683 63.098,14.625 62.785,14.631ZM62.804,15.753C62.97,15.75 63.134,15.78 63.288,15.842C63.442,15.904 63.581,15.996 63.699,16.113C63.816,16.23 63.909,16.37 63.972,16.523C64.035,16.677 64.066,16.842 64.065,17.008C64.069,17.174 64.04,17.339 63.98,17.494C63.92,17.648 63.829,17.789 63.714,17.908C63.598,18.027 63.46,18.121 63.308,18.186C63.156,18.25 62.992,18.284 62.827,18.284C62.661,18.284 62.498,18.25 62.345,18.186C62.193,18.121 62.055,18.027 61.94,17.908C61.824,17.789 61.734,17.648 61.673,17.494C61.613,17.339 61.584,17.174 61.588,17.008C61.585,16.68 61.711,16.364 61.939,16.129C62.167,15.894 62.478,15.759 62.804,15.753Z" style="fill:rgb(51,59,65);fill-rule:nonzero;stroke:rgb(51,59,65);stroke-width:0.7px;"/>
    </g>
    <g transform="matrix(1,0,0,1,1.5,28.5)">
        <path d="M63.498,28.827C63.947,29.464 64.542,29.985 65.233,30.344C65.923,30.703 66.69,30.891 67.468,30.891C68.246,30.891 69.013,30.703 69.703,30.344C70.394,29.985 70.989,29.464 71.438,28.827C71.52,28.706 71.551,28.558 71.526,28.415C71.5,28.271 71.419,28.144 71.3,28.059C71.182,27.975 71.035,27.942 70.891,27.965C70.748,27.989 70.62,28.068 70.535,28.186C70.188,28.679 69.728,29.081 69.195,29.359C68.661,29.636 68.069,29.781 67.468,29.781C66.867,29.781 66.275,29.636 65.741,29.359C65.207,29.081 64.748,28.679 64.401,28.186C64.316,28.068 64.188,27.989 64.044,27.965C63.901,27.942 63.754,27.975 63.635,28.059C63.517,28.144 63.436,28.271 63.41,28.415C63.384,28.558 63.416,28.706 63.498,28.827Z" style="fill:rgb(51,59,65);fill-rule:nonzero;stroke:rgb(51,59,65);stroke-width:0.7px;"/>
    </g>
</svg>
