<?xml version="1.0" encoding="UTF-8" standalone="no"?>
<!DOCTYPE svg PUBLIC "-//W3C//DTD SVG 1.1//EN" "http://www.w3.org/Graphics/SVG/1.1/DTD/svg11.dtd">
<svg width="100%" height="100%" viewBox="0 0 270 200" version="1.1" xmlns="http://www.w3.org/2000/svg" xmlns:xlink="http://www.w3.org/1999/xlink" xml:space="preserve" xmlns:serif="http://www.serif.com/" style="fill-rule:evenodd;clip-rule:evenodd;stroke-linejoin:round;stroke-miterlimit:2;">
    <g transform="matrix(1,0,0,1,0,-46)">
        <path d="M248.818,196.012C259.667,175.031 268.492,149.302 268.492,121.882C268.492,108.109 264.189,92.452 256.983,80.001C250.681,69.113 238.996,55.047 219.099,49.861C193.918,43.298 168.405,49.418 147.905,54.336C140.497,56.113 133.499,57.792 127.505,58.622C114.063,60.482 99.861,60.209 87.653,59.738L87.645,59.738C85.735,59.664 83.869,59.585 82.067,59.51C74.354,59.184 56.591,58.872 56.591,58.872C55.621,54.751 53.411,51.375 50.653,49.816C49.484,49.167 48.208,48.838 46.919,48.853C45.629,48.868 44.359,49.227 43.202,49.904C39.407,51.952 37.588,56.502 38.448,61.639C32.369,64.76 26.429,70.971 22.827,75.856C19.734,80.049 17.112,86.671 14.574,93.074C11.991,99.595 9.32,106.338 6.647,109.061C5.993,109.722 5.414,110.483 4.926,111.323C4.917,111.323 4.909,111.318 4.9,111.316C4.341,111.182 3.764,111.188 3.208,111.335C2.651,111.482 2.126,111.766 1.667,112.168C1.208,112.571 0.824,113.084 0.541,113.673C0.257,114.263 0.081,114.917 0.022,115.592C-0.037,116.268 0.023,116.951 0.199,117.597C0.375,118.244 0.662,118.839 1.042,119.346C1.422,119.852 1.886,120.258 2.406,120.538C2.926,120.818 3.488,120.966 4.059,120.971C4.541,122.763 5.193,124.483 6.002,126.1C11.381,137.133 19.89,143.992 27.397,150.042C31.536,153.378 35.444,156.529 38.472,160.048C40.744,162.78 42.72,165.84 44.354,169.157C44.372,169.199 44.396,169.235 44.416,169.276C47.489,175.404 49.927,182.881 50.383,190.022C50.958,199.044 52.32,223.404 52.749,231.098C51.269,231.659 49.882,232.518 48.646,233.637C47.727,234.465 47.052,235.62 46.72,236.935C46.388,238.251 46.415,239.658 46.798,240.953C47.161,242.275 47.868,243.425 48.817,244.237C49.765,245.049 50.905,245.481 52.073,245.469L77.215,245.469C78.025,245.471 78.825,245.26 79.56,244.853C80.294,244.446 80.945,243.852 81.466,243.113C87.026,235.234 100.896,214.929 109.674,196.507C143.654,196.467 166.86,194.998 180.397,192.018C182.413,207.207 185.076,224.514 186.05,230.756C185.209,231.225 184.415,231.801 183.68,232.475C182.674,233.4 181.936,234.676 181.57,236.124C181.203,237.573 181.226,239.123 181.636,240.555C182.045,241.988 182.821,243.232 183.853,244.113C184.886,244.994 186.124,245.468 187.394,245.468L210.961,245.468C212.355,245.467 213.706,244.896 214.79,243.852C222.562,236.34 236.783,219.18 248.642,196.355C248.707,196.245 248.766,196.131 248.818,196.012ZM82.738,123.819C75.137,142.801 61.756,158.156 47.502,164.419C45.865,161.368 43.957,158.537 41.809,155.976C38.475,152.101 34.394,148.812 30.074,145.33C22.646,139.342 14.963,133.15 10.132,123.242C7.192,117.211 8.29,114.875 9.751,113.387C13.203,109.871 15.968,102.892 18.895,95.503C21.29,89.456 23.767,83.203 26.416,79.612C29.622,75.265 35.323,69.252 40.84,66.616C41.382,66.356 41.869,65.957 42.267,65.447C45.283,70.7 52.466,69.925 54.269,65.143C54.395,64.799 54.488,64.44 54.547,64.072C62.139,65.248 74.237,64.871 81.899,65.196C83.198,65.251 84.537,65.307 85.893,65.361C91.481,84.058 90.379,104.741 82.738,123.819ZM229.255,175.936C224.804,174.95 202.711,170.969 184.181,183.909C183.3,176.773 182.699,170.838 182.699,167.937C182.699,167.183 182.447,166.459 182,165.926C181.552,165.392 180.945,165.092 180.311,165.092C179.678,165.092 179.071,165.392 178.623,165.926C178.175,166.459 177.924,167.183 177.924,167.937C177.924,171.306 178.645,178.248 179.668,186.393C168.107,188.967 149.042,190.399 121.715,190.739C127.155,186.803 131.493,181.153 134.661,173.804C139.073,163.576 141.023,150.251 140.3,135.268C139.486,118.387 128.6,95.65 119.852,77.382C117.826,73.152 115.886,69.1 114.27,65.514C118.871,65.29 123.497,64.904 128.054,64.273C134.245,63.417 141.337,61.715 148.845,59.911C168.907,55.098 193.875,49.108 218.076,55.417C251.326,64.086 263.716,100.786 263.716,121.882C263.716,146.163 256.475,169.109 247.132,188.388C244.389,183.5 238.673,178.023 229.255,175.936Z" style="fill-rule:nonzero;"/>
    </g>
    <g transform="matrix(1,0,0,1,0,-46)">
        <path d="M32.002,89.239C22.392,84.814 16.802,97.241 22.918,104.539C26.263,108.527 29.442,117.769 36.709,117.003C48.254,115.788 47.191,96.225 32.002,89.239ZM27.648,101.263C27.078,101.263 26.521,101.059 26.048,100.676C25.574,100.294 25.204,99.751 24.986,99.115C24.768,98.479 24.711,97.779 24.822,97.105C24.933,96.43 25.208,95.81 25.611,95.323C26.014,94.836 26.527,94.505 27.086,94.371C27.645,94.237 28.225,94.306 28.751,94.569C29.278,94.832 29.728,95.278 30.044,95.85C30.361,96.423 30.53,97.095 30.53,97.783C30.53,98.706 30.226,99.591 29.686,100.243C29.145,100.896 28.413,101.262 27.648,101.263Z" style="fill-rule:nonzero;"/>
    </g>
    <g transform="matrix(1,0,0,1,0,-46)">
        <path d="M135.331,201.951C135.301,201.811 135.233,201.687 135.136,201.599C135.04,201.511 134.921,201.464 134.799,201.465C132.193,201.498 118.399,201.668 112.55,201.696C112.46,201.695 112.372,201.722 112.293,201.774C112.214,201.825 112.148,201.9 112.101,201.99C108.342,209.044 101.747,220.019 97.392,227.164C97.32,227.282 97.285,227.425 97.292,227.57C97.299,227.715 97.347,227.852 97.43,227.96L103.515,236.012L103.45,236.127C103.429,236.172 103.402,236.216 103.38,236.261C102.905,237.179 102.646,238.23 102.63,239.306C102.613,240.382 102.84,241.443 103.286,242.381C103.732,243.319 104.382,244.099 105.169,244.642C105.955,245.185 106.85,245.471 107.762,245.47L133.641,245.47C134.325,245.469 135.003,245.307 135.633,244.993C136.264,244.679 136.835,244.219 137.313,243.641C137.791,243.062 138.166,242.376 138.416,241.624C138.666,240.872 138.787,240.068 138.77,239.26C138.683,235.097 138.456,228.562 137.892,221.47C137.426,214.901 136.57,208.379 135.331,201.951Z" style="fill-rule:nonzero;"/>
    </g>
    <g transform="matrix(1,0,0,1,0,-46)">
        <path d="M262.923,178.544C262.888,178.422 262.824,178.316 262.738,178.239C262.652,178.163 262.549,178.12 262.443,178.116C262.336,178.113 262.231,178.148 262.142,178.218C262.053,178.288 261.983,178.39 261.942,178.509C261.238,180.589 260.447,182.625 259.574,184.608C252.27,201.22 243.413,216.754 233.177,230.901C233.09,231.02 233.043,231.174 233.045,231.334C233.047,231.493 233.099,231.645 233.19,231.76L234.959,234.026C234.439,234.773 234.003,235.6 233.662,236.486C233.295,237.466 233.139,238.541 233.207,239.614C233.275,240.686 233.565,241.72 234.051,242.62C234.483,243.476 235.086,244.185 235.804,244.684C236.522,245.182 237.331,245.452 238.158,245.47L265.024,245.47C265.688,245.469 266.345,245.308 266.956,244.995C267.567,244.683 268.121,244.225 268.584,243.648C269.048,243.072 269.411,242.39 269.654,241.64C269.897,240.891 270.014,240.09 269.999,239.285C269.733,226.33 268.499,197.618 262.923,178.544Z" style="fill-rule:nonzero;"/>
    </g>
</svg>
