<?xml version="1.0" encoding="UTF-8" standalone="no"?>
<!DOCTYPE svg PUBLIC "-//W3C//DTD SVG 1.1//EN" "http://www.w3.org/Graphics/SVG/1.1/DTD/svg11.dtd">
<svg width="100%" height="100%" viewBox="0 0 130 130" version="1.1" xmlns="http://www.w3.org/2000/svg" xmlns:xlink="http://www.w3.org/1999/xlink" xml:space="preserve" xmlns:serif="http://www.serif.com/" style="fill-rule:evenodd;clip-rule:evenodd;stroke-linejoin:round;stroke-miterlimit:2;">
    <g transform="matrix(1,0,0,1,11,35)">
        <path d="M46.973,25.033C46.918,25.016 46.865,24.996 46.814,24.972C31.544,19.236 24.435,29.939 24.414,29.97C24.264,30.189 24.043,30.362 23.772,30.449L5.641,36.305C4.616,36.637 3.783,37.282 3.229,38.112C2.677,38.939 2.4,39.958 2.487,41.039L3.662,55.798C3.689,56.129 3.788,56.427 3.95,56.676C4.114,56.927 4.347,57.138 4.638,57.296C4.933,57.454 5.238,57.533 5.535,57.531C5.827,57.529 6.13,57.446 6.427,57.281L6.427,57.283L24.72,47.13C24.913,47.02 25.137,46.96 25.375,46.968C25.42,46.97 41.215,47.58 47.109,48.687C52.34,49.67 54.558,47.745 54.565,47.74L54.566,47.742C54.628,47.691 54.695,47.644 54.768,47.605L72.447,37.976L47.878,37.976L47.878,37.972C47.77,37.972 47.66,37.958 47.55,37.927C46.62,37.668 46.002,37.032 45.689,36.278C45.506,35.839 45.431,35.359 45.463,34.896C45.495,34.419 45.642,33.947 45.902,33.54C46.283,32.94 46.885,32.495 47.698,32.371L63.58,27.407C64.447,27.136 64.988,26.398 65.152,25.589C65.226,25.224 65.224,24.845 65.141,24.487C65.065,24.158 64.917,23.848 64.692,23.592C64.173,23 63.199,22.668 61.689,22.938L48.237,25.337L48.237,25.335C48.018,25.374 47.787,25.354 47.566,25.265C47.366,25.185 47.169,25.108 46.973,25.033ZM46.1,22.111L46.1,5.864C46.1,4.25 46.758,2.784 47.818,1.722C48.878,0.659 50.341,0 51.951,0L102.149,0C103.76,0 105.222,0.659 106.282,1.722C107.342,2.784 108,4.25 108,5.864L108,32.112C108,33.726 107.342,35.192 106.282,36.254C105.222,37.316 103.76,37.976 102.149,37.976L77.608,37.976L56.047,49.718C55.467,50.156 52.387,52.195 46.655,51.118C41.416,50.133 27.928,49.545 25.627,49.451L7.614,59.448L7.615,59.45C6.962,59.812 6.259,59.995 5.544,60C4.835,60.005 4.13,59.829 3.47,59.474C2.805,59.117 2.269,58.625 1.882,58.031C1.494,57.435 1.259,56.744 1.198,55.992L0.023,41.233C-0.108,39.588 0.323,38.023 1.181,36.737C2.036,35.455 3.317,34.46 4.887,33.952L22.634,28.22C24.091,26.314 31.75,17.525 46.1,22.111ZM48.102,35.497L102.149,35.497C103.076,35.497 103.921,35.115 104.534,34.501C105.146,33.888 105.527,33.041 105.527,32.112L105.527,13.107L48.574,13.107L48.574,22.761L61.264,20.497C63.752,20.054 65.499,20.761 66.547,21.956C67.049,22.529 67.38,23.212 67.547,23.935C67.619,24.245 67.659,24.562 67.669,24.882L71.352,24.882C71.693,24.882 71.97,25.16 71.97,25.502C71.97,25.844 71.693,26.122 71.352,26.122L67.557,26.122C67.365,27.027 66.931,27.888 66.272,28.568C66.359,28.674 66.411,28.81 66.411,28.958C66.411,29.3 66.134,29.578 65.792,29.578L64.824,29.578C64.661,29.65 64.491,29.715 64.314,29.77L48.339,34.763C48.247,34.792 48.155,34.809 48.063,34.816C48.021,34.825 47.993,34.844 47.979,34.866C47.949,34.913 47.932,34.981 47.926,35.06C47.92,35.153 47.934,35.246 47.969,35.329C47.996,35.396 48.041,35.455 48.102,35.497ZM92.998,23.457C93.913,23.457 94.775,23.687 95.528,24.094C95.831,23.931 96.154,23.796 96.493,23.693C96.993,23.539 97.518,23.457 98.054,23.457C99.528,23.457 100.864,24.056 101.831,25.025C102.797,25.994 103.396,27.332 103.396,28.81C103.396,30.289 102.797,31.627 101.831,32.596C100.864,33.565 99.529,34.165 98.054,34.165C97.518,34.165 96.993,34.082 96.493,33.929C96.154,33.825 95.831,33.69 95.528,33.528C94.775,33.934 93.913,34.165 92.998,34.165C91.523,34.165 90.188,33.565 89.221,32.596C88.254,31.628 87.656,30.289 87.656,28.811C87.656,27.332 88.254,25.994 89.221,25.025C90.188,24.056 91.523,23.457 92.998,23.457ZM96.996,25.26C97.832,26.205 98.341,27.449 98.341,28.811C98.341,30.173 97.832,31.416 96.996,32.362C97.325,32.459 97.679,32.512 98.054,32.512C99.074,32.512 99.997,32.098 100.665,31.428C101.333,30.758 101.747,29.833 101.747,28.81C101.747,27.788 101.333,26.863 100.665,26.193C99.997,25.524 99.074,25.109 98.054,25.109C97.679,25.109 97.325,25.162 96.996,25.26ZM95.61,26.193C94.942,25.524 94.018,25.109 92.998,25.109C91.978,25.109 91.055,25.524 90.387,26.193C89.719,26.863 89.305,27.788 89.305,28.811C89.305,29.833 89.719,30.758 90.387,31.428C91.055,32.098 91.978,32.512 92.998,32.512C94.018,32.512 94.942,32.098 95.61,31.428C96.278,30.758 96.691,29.833 96.691,28.811C96.691,27.788 96.278,26.863 95.61,26.193ZM68.604,29.578C68.263,29.578 67.986,29.3 67.986,28.958C67.986,28.616 68.263,28.339 68.604,28.339L70.714,28.339C71.055,28.339 71.332,28.616 71.332,28.958C71.332,29.3 71.055,29.578 70.714,29.578L68.604,29.578ZM92.594,19.046C92.252,19.046 91.976,18.768 91.976,18.426C91.976,18.084 92.252,17.806 92.594,17.806L100.553,17.806C100.895,17.806 101.171,18.084 101.171,18.426C101.171,18.768 100.895,19.046 100.553,19.046L92.594,19.046ZM74.408,19.046C74.067,19.046 73.79,18.768 73.79,18.426C73.79,18.084 74.067,17.806 74.408,17.806L85.901,17.806C86.242,17.806 86.519,18.084 86.519,18.426C86.519,18.768 86.242,19.046 85.901,19.046L74.408,19.046ZM50.979,19.046C50.637,19.046 50.36,18.768 50.36,18.426C50.36,18.084 50.637,17.806 50.979,17.806L67.756,17.806C68.098,17.806 68.375,18.084 68.375,18.426C68.375,18.768 68.098,19.046 67.756,19.046L50.979,19.046ZM105.527,11.454L105.527,6.69L48.574,6.69L48.574,11.454L105.527,11.454ZM105.424,5.038C105.272,4.438 104.959,3.9 104.534,3.474C103.921,2.86 103.076,2.479 102.149,2.479L51.951,2.479C51.024,2.479 50.179,2.86 49.567,3.474C49.142,3.9 48.829,4.438 48.676,5.038L105.424,5.038Z" style="fill:rgb(51,59,65);fill-rule:nonzero;"/>
    </g>
</svg>
