<?xml version="1.0" encoding="UTF-8" standalone="no"?>
<!DOCTYPE svg PUBLIC "-//W3C//DTD SVG 1.1//EN" "http://www.w3.org/Graphics/SVG/1.1/DTD/svg11.dtd">
<svg width="100%" height="100%" viewBox="0 0 10 20" version="1.1" xmlns="http://www.w3.org/2000/svg" xmlns:xlink="http://www.w3.org/1999/xlink" xml:space="preserve" xmlns:serif="http://www.serif.com/" style="fill-rule:evenodd;clip-rule:evenodd;stroke-linejoin:round;stroke-miterlimit:2;">
    <path d="M8.078,6.26C7.662,5.87 7.247,5.584 6.857,5.377C6.468,5.195 6.026,5.091 5.532,5.091C4.961,5.091 4.545,5.221 4.26,5.455C3.974,5.688 3.818,6.078 3.818,6.597C3.818,6.961 3.974,7.299 4.286,7.532C4.597,7.792 4.961,8.026 5.429,8.26C5.896,8.494 6.39,8.727 6.909,8.987C7.429,9.247 7.922,9.532 8.39,9.896C8.857,10.26 9.221,10.675 9.532,11.195C9.844,11.714 10,12.338 10,13.065C10,14.182 9.688,15.143 9.091,15.948C8.494,16.753 7.558,17.273 6.364,17.558L6.364,20L4.104,20L4.104,17.662C3.429,17.584 2.701,17.403 1.948,17.091C1.195,16.779 0.545,16.39 0,15.896L1.506,13.584C2.104,14.026 2.675,14.364 3.195,14.597C3.74,14.831 4.286,14.935 4.831,14.935C5.481,14.935 5.974,14.805 6.26,14.546C6.571,14.286 6.727,13.87 6.727,13.325C6.727,12.909 6.571,12.571 6.26,12.286C5.948,12 5.584,11.74 5.117,11.48C4.649,11.221 4.156,10.961 3.636,10.701C3.117,10.442 2.623,10.13 2.156,9.766C1.688,9.403 1.325,8.987 1.013,8.494C0.701,8 0.545,7.429 0.545,6.727C0.545,5.584 0.857,4.623 1.481,3.87C2.104,3.117 2.987,2.623 4.078,2.416L4.078,0L6.338,0L6.338,2.364C7.091,2.468 7.74,2.701 8.312,3.039C8.883,3.377 9.377,3.792 9.844,4.286L8.078,6.26Z" style="fill:rgb(146,150,153);fill-rule:nonzero;"/>
</svg>
