<?xml version="1.0" encoding="UTF-8" standalone="no"?>
<!DOCTYPE svg PUBLIC "-//W3C//DTD SVG 1.1//EN" "http://www.w3.org/Graphics/SVG/1.1/DTD/svg11.dtd">
<svg width="100%" height="100%" viewBox="0 0 37 37" version="1.1" xmlns="http://www.w3.org/2000/svg" xmlns:xlink="http://www.w3.org/1999/xlink" xml:space="preserve" xmlns:serif="http://www.serif.com/" style="fill-rule:evenodd;clip-rule:evenodd;stroke-linejoin:round;stroke-miterlimit:2;">
    <g>
        <path d="M37,18.5C37,8.304 28.696,0 18.5,0C8.304,0 0,8.304 0,18.5C0,24.626 3.001,30.093 7.647,33.464C7.729,33.547 7.811,33.588 7.893,33.629C10.894,35.767 14.553,37 18.5,37C22.447,37 26.106,35.767 29.107,33.629C29.189,33.588 29.271,33.506 29.353,33.464C33.999,30.093 37,24.626 37,18.5ZM9.044,32.437L9.044,31.656C9.044,26.434 13.279,22.2 18.5,22.2C23.721,22.2 27.956,26.434 27.956,31.656L27.956,32.437C25.242,34.287 21.994,35.356 18.5,35.356C15.006,35.356 11.758,34.287 9.044,32.437ZM13.567,15.622C13.567,12.909 15.787,10.689 18.5,10.689C21.213,10.689 23.433,12.909 23.433,15.622C23.433,18.336 21.213,20.556 18.5,20.556C15.787,20.556 13.567,18.336 13.567,15.622ZM29.6,31.162C29.394,26.476 26.311,22.57 22.077,21.131C23.886,19.98 25.078,17.924 25.078,15.622C25.078,12.004 22.118,9.044 18.5,9.044C14.882,9.044 11.922,12.004 11.922,15.622C11.922,17.924 13.114,19.98 14.923,21.131C10.689,22.57 7.606,26.517 7.4,31.162C3.864,28.079 1.644,23.557 1.644,18.5C1.644,9.209 9.209,1.644 18.5,1.644C27.791,1.644 35.356,9.209 35.356,18.5C35.356,23.557 33.136,28.079 29.6,31.162Z" style="fill-rule:nonzero;"/>
    </g>
</svg>
