<?xml version="1.0" encoding="UTF-8" standalone="no"?>
<!DOCTYPE svg PUBLIC "-//W3C//DTD SVG 1.1//EN" "http://www.w3.org/Graphics/SVG/1.1/DTD/svg11.dtd">
<svg width="100%" height="100%" viewBox="0 0 14 14" version="1.1" xmlns="http://www.w3.org/2000/svg" xmlns:xlink="http://www.w3.org/1999/xlink" xml:space="preserve" xmlns:serif="http://www.serif.com/" style="fill-rule:evenodd;clip-rule:evenodd;stroke-linejoin:round;stroke-miterlimit:2;">
    <path d="M1,14C0.744,14 0.488,13.902 0.293,13.707C-0.098,13.316 -0.098,12.684 0.293,12.293L12.293,0.293C12.684,-0.098 13.316,-0.098 13.707,0.293C14.098,0.684 14.098,1.316 13.707,1.707L1.707,13.707C1.512,13.902 1.256,14 1,14Z" style="fill:rgb(51,59,65);fill-rule:nonzero;"/>
    <path d="M13,14C12.744,14 12.488,13.902 12.293,13.707L0.293,1.707C-0.098,1.316 -0.098,0.684 0.293,0.293C0.684,-0.098 1.316,-0.098 1.707,0.293L13.707,12.293C14.098,12.684 14.098,13.316 13.707,13.707C13.512,13.902 13.256,14 13,14Z" style="fill:rgb(51,59,65);fill-rule:nonzero;"/>
</svg>
