<?xml version="1.0" encoding="UTF-8" standalone="no"?>
<!DOCTYPE svg PUBLIC "-//W3C//DTD SVG 1.1//EN" "http://www.w3.org/Graphics/SVG/1.1/DTD/svg11.dtd">
<svg width="100%" height="100%" viewBox="0 0 130 130" version="1.1" xmlns="http://www.w3.org/2000/svg" xmlns:xlink="http://www.w3.org/1999/xlink" xml:space="preserve" xmlns:serif="http://www.serif.com/" style="fill-rule:evenodd;clip-rule:evenodd;">
    <g transform="matrix(1,0,0,1,21.5,17)">
        <path d="M39.749,5.264C39.399,4.936 39.05,4.696 38.722,4.521C38.395,4.368 38.023,4.281 37.608,4.281C37.128,4.281 36.778,4.39 36.538,4.587C36.298,4.783 36.167,5.111 36.167,5.548C36.167,5.854 36.298,6.138 36.56,6.334C36.822,6.553 37.128,6.749 37.521,6.946C37.914,7.142 38.329,7.339 38.766,7.557C39.203,7.776 39.618,8.016 40.011,8.322C40.404,8.628 40.71,8.977 40.972,9.414C41.234,9.851 41.365,10.375 41.365,10.987C41.365,11.926 41.103,12.734 40.601,13.411C40.098,14.088 39.312,14.525 38.307,14.765L38.307,16.819L36.407,16.819L36.407,14.853C35.839,14.787 35.227,14.634 34.594,14.372C33.961,14.11 33.414,13.782 32.956,13.367L34.223,11.424C34.725,11.795 35.206,12.079 35.642,12.275C36.101,12.472 36.56,12.559 37.019,12.559C37.565,12.559 37.98,12.45 38.22,12.232C38.482,12.013 38.613,11.664 38.613,11.205C38.613,10.856 38.482,10.572 38.22,10.331C37.958,10.091 37.652,9.873 37.259,9.654C36.866,9.436 36.451,9.217 36.014,8.999C35.577,8.781 35.162,8.518 34.769,8.213C34.376,7.907 34.07,7.557 33.808,7.142C33.545,6.727 33.414,6.247 33.414,5.657C33.414,4.696 33.677,3.888 34.201,3.254C34.725,2.621 35.468,2.206 36.385,2.031L36.385,0L38.285,0L38.285,1.988C38.919,2.075 39.465,2.272 39.945,2.556C40.426,2.839 40.841,3.189 41.234,3.604L39.749,5.264Z" style="fill:rgb(51,59,65);fill-rule:nonzero;"/>
    </g>
    <g transform="matrix(1,0,0,1,21.5,17)">
        <path d="M86.775,76.001L83.181,73.789L75.164,88.164L79.035,90.099L86.775,76.001Z" style="fill:rgb(51,59,65);"/>
    </g>
    <g transform="matrix(1,0,0,1,21.5,17)">
        <path d="M81.246,73.236C71.847,62.454 63.554,65.219 52.496,72.406C42.821,78.764 35.633,74.341 28.446,77.382C26.787,78.211 24.299,80.147 26.51,82.082C27.616,82.911 32.039,83.74 33.422,83.464C40.885,81.805 43.097,85.123 54.431,82.911C51.114,85.399 40.333,83.74 33.698,84.57C28.446,85.675 19.876,81.529 26.787,76.829C23.746,75.447 20.982,74.618 17.664,74.341C14.347,71.853 9.095,68.812 6.33,67.707C4.119,66.325 -1.41,66.877 2.184,70.471C5.777,73.788 15.453,81.252 17.388,82.358C25.128,87.058 32.316,90.375 39.78,94.521C39.78,94.521 42.268,95.904 47.244,93.969C50.837,92.31 66.871,83.464 70.741,84.846C72.953,85.675 74.058,86.228 74.058,86.228L81.246,73.236Z" style="fill:none;stroke:rgb(51,59,65);stroke-width:1.5px;"/>
    </g>
    <g transform="matrix(1,0,0,1,21.5,17)">
        <path d="M34.528,72.406C35.081,71.3 35.634,70.471 36.463,70.195C37.292,69.918 37.569,70.471 38.122,71.024C38.674,71.853 38.951,72.13 39.78,72.683C40.057,72.959 40.609,72.959 40.886,72.959L40.333,72.683C39.504,72.13 38.951,71.577 39.227,70.471C39.227,70.195 38.951,69.642 39.504,69.642C40.057,69.918 40.886,70.471 41.715,70.471C41.715,70.471 42.545,70.747 42.268,70.471C42.268,70.195 41.715,69.918 41.439,69.642C39.78,68.259 39.78,67.983 39.78,66.048C40.057,63.283 38.951,61.072 37.016,59.137C32.593,54.714 34.528,48.632 37.845,42.827C40.886,37.575 43.65,36.745 40.609,30.387C39.504,27.623 37.569,24.858 37.292,23.2C37.292,22.647 37.292,22.923 37.292,23.2C37.016,24.858 38.122,27.346 39.227,29.834C41.715,35.363 41.162,35.916 37.569,40.892C33.699,45.868 30.934,51.12 32.593,56.649C33.699,60.519 39.227,64.389 36.463,66.877C35.081,67.983 33.146,70.747 32.869,72.406C32.593,73.235 32.593,73.235 32.316,73.788C32.04,74.065 32.316,74.065 32.593,74.065C33.975,73.788 33.975,73.235 34.528,72.406Z" style="fill:rgb(51,59,65);"/>
    </g>
    <g transform="matrix(1,0,0,1,21.5,17)">
        <path d="M40.886,62.178C47.797,62.178 53.325,53.332 53.049,47.25C45.309,49.462 40.886,51.673 40.056,54.99C39.503,56.649 39.78,57.755 41.162,58.031C41.991,57.755 44.203,54.161 48.349,52.503C44.756,55.82 44.203,57.755 41.162,60.519L40.886,60.519C39.78,59.966 38.674,59.137 38.398,58.031C37.845,56.926 37.845,55.543 38.121,54.161C39.227,51.12 42.268,48.632 47.52,46.697C50.285,45.868 52.773,44.762 55.537,44.762C54.431,50.844 53.602,55.82 50.008,59.69C45.585,64.113 41.162,62.178 40.886,62.178Z" style="fill:rgb(51,59,65);"/>
    </g>
    <g transform="matrix(1,0,0,1,21.5,17)">
        <path d="M33.698,41.168C27.617,41.445 22.917,33.704 23.193,28.452C29.828,30.387 33.698,32.322 34.528,35.086C35.08,36.469 34.528,37.574 33.422,37.851C32.592,37.574 30.657,34.533 27.064,33.151C30.381,35.916 30.934,37.574 33.422,40.062L33.698,39.786C34.804,39.509 35.633,38.957 35.91,37.851C36.463,36.745 36.463,35.639 35.91,34.533C35.08,31.769 32.592,29.558 27.893,28.175C25.405,27.346 23.47,26.517 20.982,26.24C22.088,31.493 22.641,35.916 25.958,39.233C29.552,43.103 33.422,41.445 33.698,41.168Z" style="fill:rgb(51,59,65);"/>
    </g>
    <g transform="matrix(1,0,0,1,21.5,17)">
        <path d="M43.926,31.493C48.902,31.493 53.048,25.135 53.048,20.436C46.967,22.094 43.926,23.753 43.096,26.241C42.82,27.347 43.096,28.176 43.926,28.452C44.755,28.452 46.414,25.688 49.455,24.306C46.69,26.794 46.137,28.176 43.926,30.387C42.82,30.111 42.267,29.282 41.991,28.452C41.438,27.623 41.438,26.517 41.714,25.688C42.544,23.2 44.755,21.541 48.625,20.159C50.837,19.33 52.772,18.777 54.707,18.501C53.878,22.924 53.325,26.794 50.56,29.835C47.243,33.152 43.926,31.493 43.926,31.493Z" style="fill:rgb(51,59,65);"/>
    </g>
</svg>
